<svg width="368" height="365" viewBox="0 0 368 365" fill="none" xmlns="http://www.w3.org/2000/svg">
    <g clip-path="url(#clip0_0_2535)">
        <rect width="368" height="365" fill="url(#paint0_linear_0_2535)" />
        <mask id="mask0_0_2535" style="mask-type:alpha" maskUnits="userSpaceOnUse" x="0" y="0"
            width="368" height="367">
            <path d="M0 0H368V366.5H0V0Z" fill="url(#paint1_linear_0_2535)" />
        </mask>
        <g mask="url(#mask0_0_2535)">
            <g style="mix-blend-mode:plus-darker" opacity="0.1">
                <path
                    d="M233.876 528.287C196.076 528.287 163.643 522.22 136.576 510.087C109.51 497.487 87.3428 479.987 70.0762 457.587C53.2762 434.72 40.6762 408.587 32.2762 379.187C24.3428 349.787 20.3762 318.287 20.3762 284.687V255.287C20.3762 170.354 42.0762 106.42 85.4762 63.4869C128.876 20.0869 192.81 -1.61313 277.276 -1.61313C294.543 -1.61313 311.576 -1.14645 328.376 -0.213105C345.176 0.720216 361.51 2.12021 377.376 3.98688V99.8869C361.976 98.4869 345.41 97.3202 327.676 96.3869C309.943 94.9869 291.743 94.2869 273.076 94.2869C235.743 94.2869 206.343 100.587 184.876 113.187C163.41 125.32 148.243 143.754 139.376 168.487C130.51 193.22 126.076 223.787 126.076 260.187V313.387L100.876 330.187C101.343 295.187 108.343 266.02 121.876 242.687C135.876 218.887 155.01 201.154 179.276 189.487C203.543 177.82 231.543 171.987 263.276 171.987C299.21 171.987 330.243 179.22 356.376 193.687C382.51 207.687 402.576 227.52 416.576 253.187C430.576 278.854 437.576 309.187 437.576 344.187C437.576 381.054 429.176 413.487 412.376 441.487C395.576 469.02 371.776 490.487 340.976 505.887C310.643 520.82 274.943 528.287 233.876 528.287ZM230.376 433.087C250.91 433.087 268.176 429.354 282.176 421.887C296.643 414.42 307.61 404.387 315.076 391.787C323.01 378.72 326.976 363.554 326.976 346.287C326.976 328.554 323.243 313.387 315.776 300.787C308.31 287.72 297.576 277.687 283.576 270.687C270.043 263.22 253.243 259.487 233.176 259.487C214.976 259.487 198.176 262.754 182.776 269.287C167.843 275.354 155.943 284.92 147.076 297.987C138.21 310.587 133.776 326.687 133.776 346.287C133.776 363.087 137.276 378.02 144.276 391.087C151.743 404.154 162.71 414.42 177.176 421.887C191.643 429.354 209.376 433.087 230.376 433.087Z"
                    fill="#17B26A" />
            </g>
        </g>
    </g>
    <defs>
        <linearGradient id="paint0_linear_0_2535" x1="-34.1818" y1="-68.1136" x2="135.51"
            y2="176.928" gradientUnits="userSpaceOnUse">
            <stop stop-color="#E0FFC1" />
            <stop offset="1" stop-color="#E6EFFF" />
        </linearGradient>
        <linearGradient id="paint1_linear_0_2535" x1="-34.1818" y1="-68.3935" x2="390.917"
            y2="325.233" gradientUnits="userSpaceOnUse">
            <stop stop-color="#AEFF5E" />
            <stop offset="1" stop-color="#E6EFFF" />
        </linearGradient>
        <clipPath id="clip0_0_2535">
            <rect width="368" height="365" fill="white" />
        </clipPath>
    </defs>
</svg>
    