<svg width="64" height="64" viewBox="0 0 64 64" fill="none" xmlns="http://www.w3.org/2000/svg">
    <g clip-path="url(#clip0_1112_9005)">
        <path
            d="M0 6.67826C0 2.98996 2.98996 0 6.67826 0H57.3217C61.01 0 64 2.98996 64 6.67826V57.3217C64 61.01 61.01 64 57.3217 64H6.67826C2.98996 64 0 61.01 0 57.3217V6.67826Z"
            fill="#DCFAE6" />
        <g clip-path="url(#clip1_1112_9005)">
            <path
                d="M0 6.67826C0 2.98996 2.98996 0 6.67826 0H57.3217C61.01 0 64 2.98996 64 6.67826V57.3217C64 61.01 61.01 64 57.3217 64H6.67826C2.98996 64 0 61.01 0 57.3217V6.67826Z"
                fill="#DCFAE6" />
            <path
                d="M15.4974 27.3932C16.1658 27.3932 16.7076 26.8513 16.7076 26.1829C16.7076 25.5145 16.1658 24.9727 15.4974 24.9727C14.829 24.9727 14.2871 25.5145 14.2871 26.1829C14.2871 26.8513 14.829 27.3932 15.4974 27.3932Z"
                fill="#A3F5F1" stroke="white" stroke-width="0.707227" stroke-miterlimit="1.5"
                stroke-linecap="round" stroke-linejoin="round" />
            <path
                d="M48.8004 19.7336C50.1259 19.7336 51.2004 18.6591 51.2004 17.3336C51.2004 16.0081 50.1259 14.9336 48.8004 14.9336C47.4749 14.9336 46.4004 16.0081 46.4004 17.3336C46.4004 18.6591 47.4749 19.7336 48.8004 19.7336Z"
                fill="#A3F5F1" stroke="white" stroke-width="0.468712" stroke-miterlimit="1.5"
                stroke-linecap="round" stroke-linejoin="round" />
            <path
                d="M48.7438 18.1926C49.236 18.1926 49.6351 17.7573 49.6351 17.2203C49.6351 16.6834 49.236 16.248 48.7438 16.248C48.2516 16.248 47.8525 16.6834 47.8525 17.2203C47.8525 17.7573 48.2516 18.1926 48.7438 18.1926Z"
                stroke="white" stroke-width="0.469621" stroke-miterlimit="1.5"
                stroke-linecap="round" stroke-linejoin="round" />
            <path fill-rule="evenodd" clip-rule="evenodd"
                d="M57.5901 1.94851L37.9209 22.292L51.1097 -5.78053C51.1163 -4.12054 50.6284 3.77729 57.5901 1.94851Z"
                fill="url(#paint0_linear_1112_9005)" />
            <path fill-rule="evenodd" clip-rule="evenodd"
                d="M13.8904 -7.99967L21.6738 19.2061L3.95671 -6.25205C5.39762 -5.42777 11.9934 -1.05628 13.8904 -7.99967Z"
                fill="url(#paint1_linear_1112_9005)" />
            <path fill-rule="evenodd" clip-rule="evenodd"
                d="M56.5316 64.6643L40.4941 41.3506L65.3926 59.846C63.7643 59.5231 56.1202 57.4782 56.5316 64.6643Z"
                fill="url(#paint2_linear_1112_9005)" />
            <path fill-rule="evenodd" clip-rule="evenodd"
                d="M-2.1983 57.5869L22.0659 43.0273L2.06081 66.7298C2.48406 65.1247 4.9995 57.6222 -2.1983 57.5869Z"
                fill="url(#paint3_linear_1112_9005)" />
            <path fill-rule="evenodd" clip-rule="evenodd"
                d="M56.0016 25.6163C55.7573 26.4886 55.7637 29.1678 56.3824 30.2637C56.9975 31.3616 59.2835 32.7587 60.1557 33.003C59.2835 32.7587 56.6045 32.7651 55.5095 33.381C54.4109 33.9989 53.0141 36.285 52.7698 37.1573C53.0141 36.285 53.0076 33.6058 52.3897 32.5071C51.7738 31.4119 49.4878 30.0148 48.6156 29.7705C49.4878 30.0148 52.1668 30.0085 53.2626 29.3898C54.3604 28.7747 55.7573 26.4886 56.0016 25.6163Z"
                fill="#FFFDFA" />
            <path
                d="M28.7554 4C42.8282 6.49226 59.9449 12.6795 58.5912 22.5966C56.17 40.339 3.15494 31.4118 0 50.9333"
                stroke="white" stroke-opacity="0.8" stroke-width="0.533333" stroke-linecap="round" />
            <g clip-path="url(#clip2_1112_9005)">
                <path fill-rule="evenodd" clip-rule="evenodd"
                    d="M25.0397 34.7813C25.0079 34.6543 24.9269 34.5451 24.8146 34.4776C24.7023 34.4102 24.5678 34.3903 24.4408 34.4219H21.3265C20.5409 34.4132 19.76 34.5449 19.0207 34.8112C18.9637 34.82 18.9092 34.8406 18.8604 34.8713C18.8117 34.9022 18.7698 34.9429 18.7375 34.9906C18.7052 35.0384 18.6831 35.0924 18.6726 35.1491C18.662 35.2058 18.6633 35.264 18.6764 35.3203C18.6836 35.3771 18.7023 35.4317 18.7314 35.4811C18.7605 35.5303 18.7994 35.5732 18.8457 35.6068C18.892 35.6405 18.9447 35.6642 19.0006 35.6768C19.0564 35.6893 19.1142 35.6903 19.1705 35.6797C19.7802 35.7371 20.3823 35.8576 20.9672 36.0389C21.2561 36.0628 21.5466 36.0628 21.8356 36.0389C22.1322 36.0373 22.428 36.0071 22.7189 35.9491C23.3908 35.8141 24.0477 35.6135 24.6803 35.3503C24.7992 35.3153 24.9013 35.2384 24.9674 35.1335C25.0336 35.0288 25.0593 34.9036 25.0397 34.7813Z"
                    fill="#008B89" />
                <path fill-rule="evenodd" clip-rule="evenodd"
                    d="M37.8113 38.7195C36.9953 38.5383 36.1529 38.5078 35.326 38.6296C35.326 38.3002 35.2511 37.9708 35.2061 37.6414C35.1313 37.0426 35.0264 36.4587 34.9366 35.8597H36.7633C36.8195 35.8681 36.877 35.865 36.9319 35.8506C36.9869 35.836 37.0384 35.8105 37.0832 35.7754C37.1281 35.7405 37.1653 35.6967 37.1926 35.6469C37.22 35.5969 37.237 35.542 37.2424 35.4855C37.2508 35.4283 37.2478 35.3701 37.2335 35.3142C37.2191 35.2584 37.1938 35.2059 37.159 35.1598C37.1242 35.1138 37.0804 35.0752 37.0304 35.0463C36.9806 35.0173 36.9253 34.9987 36.8681 34.9914L35.1013 34.8565H34.8019C34.8019 34.4523 34.6822 34.063 34.6372 33.6588C34.6492 33.594 34.6468 33.5274 34.6301 33.4636C34.6135 33.3999 34.5829 33.3405 34.5407 33.2898C34.4986 33.2392 34.4459 33.1984 34.3862 33.1704C34.3265 33.1425 34.2614 33.1279 34.1956 33.1279C34.1296 33.1279 34.0645 33.1425 34.0048 33.1704C33.9452 33.1984 33.8924 33.2392 33.8503 33.2898C33.8081 33.3405 33.7775 33.3999 33.7609 33.4636C33.7442 33.5274 33.7418 33.594 33.7538 33.6588C33.7538 34.108 33.7538 34.5571 33.679 35.0064C32.5142 35.1898 31.4162 35.6692 30.4898 36.3988C30.133 36.705 29.8868 37.1202 29.7893 37.5802C29.692 38.0401 29.7487 38.5195 29.9509 38.944C30.1901 39.4677 30.61 39.8875 31.1336 40.1269C31.7903 40.4056 32.5027 40.5285 33.2149 40.4863H33.8587C33.8587 40.7557 33.8587 41.0253 33.9634 41.2798C34.0682 41.8786 34.2029 42.4776 34.3228 43.0615H33.5293C32.4383 42.9354 31.3975 42.5334 30.5048 41.8936C30.4537 41.8524 30.3949 41.8216 30.3319 41.803C30.2689 41.7844 30.2027 41.7784 30.1375 41.7853C30.0055 41.7994 29.8844 41.8653 29.801 41.9685C29.7598 42.0196 29.729 42.0784 29.7104 42.1414C29.6918 42.2044 29.6858 42.2706 29.6927 42.3358C29.7068 42.4678 29.7727 42.5889 29.8759 42.6723C30.9089 43.4512 32.117 43.9653 33.3944 44.1694C33.8287 44.2444 34.2629 44.2743 34.6822 44.3043L34.9067 45.2325C34.9159 45.2977 34.9379 45.3604 34.9715 45.417C35.0053 45.4735 35.05 45.5229 35.1029 45.5619C35.1559 45.601 35.2162 45.6291 35.2802 45.6445C35.3443 45.6598 35.4107 45.6624 35.4757 45.6517C35.6086 45.6297 35.7274 45.5559 35.806 45.4464C35.8846 45.337 35.9165 45.2008 35.8949 45.0678V44.2893C36.37 44.268 36.8416 44.1978 37.3024 44.0797C38.2204 43.8322 39.0407 43.3098 39.653 42.5824C39.9164 42.2682 40.081 41.883 40.1263 41.4754C40.1716 41.0679 40.0955 40.6561 39.9076 40.2916C39.7057 39.8836 39.4109 39.5289 39.0467 39.2557C38.6827 38.9827 38.2595 38.799 37.8113 38.7195ZM33.125 38.8543C32.7392 38.8971 32.3491 38.8717 31.9721 38.7793C31.8344 38.7564 31.7032 38.7045 31.5871 38.6269C31.471 38.5495 31.3726 38.4484 31.2983 38.3302C31.0139 37.7763 31.2983 37.357 31.8224 37.0126C32.3753 36.6307 32.9875 36.3423 33.634 36.1593V38.8093L33.125 38.8543ZM38.1109 41.8488C37.7326 42.2179 37.2776 42.499 36.7783 42.6723C36.4187 42.7923 36.0473 42.8725 35.6704 42.9118C35.6704 42.283 35.6704 41.6541 35.5505 41.0253V40.2466C36.0239 40.2094 36.4996 40.2094 36.973 40.2466C37.2695 40.2294 37.5652 40.2925 37.8289 40.4296C38.0924 40.5667 38.314 40.7725 38.4701 41.0253C38.5001 41.3397 38.3354 41.6242 38.1109 41.8786V41.8488Z"
                    fill="#0C6FFF" />
                <path fill-rule="evenodd" clip-rule="evenodd"
                    d="M44.8635 38.1805C44.6258 37.3867 44.2673 36.6341 43.8005 35.9495C43.2437 35.1593 42.6387 34.4044 41.9888 33.6887C42.5912 33.4648 43.0949 33.0352 43.4112 32.476C43.6163 32.0914 43.7322 31.6657 43.7504 31.2302C43.7685 30.7948 43.6884 30.3608 43.5161 29.9605C43.7477 29.8612 43.9643 29.7302 44.1599 29.5712C44.487 29.2157 44.7233 28.7862 44.8484 28.3195C44.9735 27.8528 44.9838 27.3627 44.8785 26.8912C44.7785 26.4478 44.5788 26.0331 44.2946 25.6784C44.6456 25.4882 44.9307 25.1961 45.1124 24.8406C45.2942 24.4852 45.3641 24.083 45.3128 23.6871C45.1266 23.1906 44.8347 22.7406 44.4572 22.3683C44.0798 21.9959 43.6257 21.7103 43.1268 21.531C42.8345 21.3902 42.5283 21.2798 42.2135 21.2016C41.9055 21.1116 41.5896 21.0515 41.2701 21.022C40.3107 21.0087 39.3513 21.0436 38.3954 21.1268L37.4073 21.2166C37.3169 21.1628 37.2216 21.1177 37.1228 21.0819L35.7303 20.7225C35.3411 20.7225 34.9518 20.5578 34.5476 20.5129C34.2435 20.4905 33.9383 20.4905 33.6342 20.5129C32.7591 20.6802 31.9281 21.0268 31.1937 21.531C29.5317 22.639 27.5104 24.3159 26.8966 24.84C26.4609 25.1601 25.9395 25.3426 25.3993 25.364H22.5396C22.4833 25.3599 22.4268 25.3673 22.3734 25.3856C22.32 25.4039 22.2709 25.4328 22.229 25.4705C22.187 25.5083 22.1531 25.5541 22.1293 25.6053C22.1055 25.6564 22.0923 25.7119 22.0904 25.7682C22.0864 25.8265 22.0941 25.885 22.1131 25.9402C22.1322 25.9953 22.1622 26.0461 22.2013 26.0895C22.2405 26.1328 22.288 26.1678 22.3409 26.1923C22.3939 26.2169 22.4513 26.2305 22.5096 26.2324C23.6707 26.387 24.8432 26.4371 26.0132 26.3821C26.5853 26.3245 27.135 26.1293 27.6152 25.8132C28.2291 25.4089 29.8761 24.2111 31.4033 23.2529C32.1051 22.7137 32.9027 22.3123 33.7539 22.07C33.953 22.0473 34.1538 22.0473 34.3529 22.07C34.7123 22.07 35.0715 22.2048 35.4159 22.2647L36.494 22.5791C36.9132 22.7288 37.2126 22.8935 37.2725 23.163C37.3325 23.4325 37.1228 23.5972 36.7784 23.8368C36.3816 24.1416 35.9289 24.3654 35.4459 24.4956C34.905 24.6264 34.3541 24.7116 33.7989 24.7501C33.6069 24.7617 33.4272 24.8482 33.2984 24.9911C33.1695 25.1339 33.102 25.3216 33.1101 25.5137C33.1233 25.6331 33.1233 25.7536 33.1101 25.8731C33.1925 26.9042 32.8763 27.9277 32.2268 28.7328C31.3985 29.6015 30.279 30.1346 29.0826 30.23C29.0175 30.2375 28.9545 30.2578 28.8974 30.2897C28.8402 30.3217 28.7899 30.3646 28.7495 30.4162C28.7091 30.4678 28.6794 30.5267 28.662 30.59C28.6446 30.6532 28.64 30.719 28.6484 30.784C28.6589 30.8981 28.71 31.0048 28.7924 31.0844C28.8749 31.1641 28.9831 31.2116 29.0975 31.2182C28.4687 32.0417 27.8848 32.8802 27.3308 33.7486C26.6558 34.8113 26.041 35.911 25.4892 37.0426C25.0925 37.8874 24.7669 38.7638 24.5159 39.6628C24.3345 40.2833 24.2142 40.9202 24.1566 41.5642C24.1111 42.5222 24.2858 43.4779 24.6674 44.3578C25.0489 45.2377 25.6271 46.0184 26.3576 46.6399C28.4001 48.4318 30.9366 49.5643 33.6342 49.8889C36.3473 50.2501 39.1044 49.7249 41.4948 48.3917C42.6887 47.6588 43.6706 46.6268 44.3429 45.3977C45.0152 44.1686 45.3546 42.7852 45.3278 41.3846C45.35 40.8389 45.32 40.2925 45.2379 39.7526C45.1434 39.2218 45.0185 38.6968 44.8635 38.1805ZM42.2883 31.7722C42.0909 32.0266 41.8169 32.2106 41.5067 32.2969C41.1965 32.3831 40.8668 32.3672 40.5665 32.2513C39.5786 32.1638 38.6298 31.8235 37.8116 31.2632C37.601 31.1431 37.4297 30.9647 37.3181 30.7496C37.2065 30.5344 37.1595 30.2917 37.1826 30.0503C37.2315 29.8379 37.3347 29.6419 37.4822 29.4814L37.6019 29.3915C37.9248 29.5616 38.2601 29.7068 38.6051 29.8258C39.4134 30.1015 40.2537 30.2726 41.1054 30.3349C41.6063 30.3625 42.1088 30.3323 42.6027 30.245C42.6707 30.5066 42.6776 30.7804 42.6231 31.0451C42.5685 31.31 42.4541 31.5587 42.2883 31.7722ZM43.2017 28.4184C42.9995 28.5345 42.7749 28.606 42.5429 28.628C42.0998 28.6738 41.6532 28.6738 41.2103 28.628C40.491 28.5645 39.7793 28.4342 39.0842 28.2387C38.7114 28.1593 38.3457 28.0492 37.9911 27.9093C38.2457 27.6847 37.9163 26.8762 38.141 26.4121C38.2247 26.1579 38.3513 25.9199 38.5152 25.7084C39.0717 26.0267 39.6798 26.2446 40.3119 26.3522C41.2508 26.5405 42.2178 26.5405 43.1567 26.3522L43.3664 26.2773C43.5645 26.556 43.6883 26.8807 43.7256 27.2206C43.7346 27.4469 43.692 27.6722 43.6013 27.8797C43.5105 28.0872 43.3739 28.2714 43.2017 28.4184ZM40.9857 22.4743L42.4829 23.0283C42.9554 23.2151 43.3655 23.5318 43.6658 23.9416C43.8005 24.1362 43.6658 24.3309 43.3214 24.5555L42.8123 24.825C42.074 25.0656 41.2964 25.1622 40.5215 25.1095C40.0652 25.0753 39.6162 24.9744 39.189 24.81C39.1542 24.721 39.0918 24.6453 39.011 24.5942C38.9303 24.543 38.8352 24.519 38.7398 24.5255L38.5601 24.4057C38.8925 23.9818 39.0432 23.4434 38.9793 22.9085C38.9318 22.7161 38.8614 22.5302 38.7698 22.3545C39.51 22.3568 40.2495 22.3968 40.9857 22.4743ZM40.6113 47.0591C38.4975 48.1688 36.0855 48.5777 33.7241 48.227C31.3985 47.9393 29.205 46.988 27.4056 45.487C26.8307 45.031 26.3635 44.4538 26.0374 43.7963C25.7113 43.1389 25.5343 42.4177 25.5191 41.684C25.5472 40.9837 25.6629 40.2895 25.8635 39.6178C26.065 38.9155 26.3203 38.2297 26.6271 37.5665C27.0996 36.4469 27.6396 35.3569 28.2441 34.3025C28.8604 33.2702 29.5301 32.2708 30.2504 31.3081C30.2634 31.2488 30.2634 31.1876 30.2504 31.1284C31.332 30.9269 32.3283 30.4052 33.1101 29.6312C33.9753 28.7026 34.4661 27.4864 34.4876 26.2174C35.0492 26.1824 35.6058 26.0921 36.1496 25.9479C36.5679 25.8206 36.9699 25.6447 37.3473 25.4239C37.1277 25.6975 36.9464 25.9997 36.8084 26.3222C36.5426 26.9081 36.4341 27.5532 36.494 28.1938C36.512 28.3686 36.5682 28.5373 36.6587 28.6879L36.5238 28.7777C36.2708 29.0174 36.0806 29.3156 35.9699 29.6461C35.786 30.1327 35.7623 30.6653 35.9024 31.1663C36.0423 31.6673 36.3389 32.1104 36.7485 32.431C37.7414 33.2392 38.9384 33.7574 40.2071 33.9283C40.4064 33.9433 40.6067 33.9433 40.806 33.9283C41.4948 34.8116 42.2285 35.6501 42.8123 36.5783C43.1879 37.1815 43.4705 37.8376 43.6508 38.5249C43.7771 39.016 43.8621 39.5168 43.9053 40.022C43.9427 40.4905 43.9427 40.961 43.9053 41.4295C43.88 42.5635 43.5707 43.6729 43.0056 44.6564C42.4407 45.64 41.6381 46.466 40.6713 47.0591H40.6113Z"
                    fill="#68DFDD" />
                <path fill-rule="evenodd" clip-rule="evenodd"
                    d="M31.4778 18.6713L32.1666 20.0038C32.1947 20.0545 32.2325 20.099 32.2779 20.1348C32.3234 20.1706 32.3756 20.1969 32.4314 20.2123C32.4872 20.2276 32.5455 20.2316 32.6028 20.2241C32.6603 20.2166 32.7155 20.1977 32.7656 20.1685C32.8674 20.1116 32.9432 20.0173 32.9766 19.9055C33.0102 19.7937 32.999 19.6732 32.9451 19.5696L32.4362 18.3419L32.2715 17.4735C32.2715 16.8596 32.2715 16.5751 32.5559 16.5003C32.9268 16.4672 33.3005 16.5183 33.6489 16.65C34.211 16.8217 34.799 16.8926 35.3856 16.8596C35.6601 16.8038 35.9232 16.7026 36.1643 16.5602C36.4637 16.3805 36.7632 16.126 37.0776 15.9164C37.392 15.7067 37.2872 15.6918 37.407 15.7217C37.5267 15.7517 37.6016 15.9313 37.7064 16.0511C37.8491 16.2646 38.004 16.4696 38.1705 16.665C38.3363 16.8489 38.5341 17.0012 38.7545 17.1142C39.5346 17.3144 40.3622 17.2016 41.0603 16.7997C41.3148 16.6949 41.5544 16.5751 41.7939 16.5003H41.9586C42.0186 16.7504 42.0488 17.0067 42.0485 17.2639L41.8388 18.282L41.255 19.5397C41.1848 19.6499 41.1596 19.7828 41.1846 19.911C41.2097 20.0392 41.2832 20.1528 41.3897 20.2284C41.4467 20.2648 41.5107 20.2887 41.5776 20.2985C41.6444 20.3084 41.7126 20.304 41.7777 20.2856C41.8427 20.2672 41.9031 20.2353 41.955 20.1919C42.0068 20.1485 42.0489 20.0946 42.0783 20.0338L42.872 18.6563L43.2612 17.3687C43.3572 17.0396 43.3761 16.6928 43.3164 16.3552C43.2567 16.0177 43.1199 15.6984 42.9168 15.4223C42.6189 15.2169 42.2709 15.0959 41.9099 15.0722C41.5487 15.0485 41.1879 15.1229 40.8656 15.2875L39.9074 15.542C39.7427 15.542 39.608 15.6618 39.4881 15.542C39.3684 15.4223 39.2486 15.2276 39.1139 15.033C38.9505 14.7741 38.7486 14.5419 38.5149 14.3442C38.3048 14.1947 38.0648 14.0925 37.8113 14.0448C37.4612 13.9626 37.0941 13.9941 36.7632 14.1346C36.3701 14.3149 36.0024 14.5465 35.6702 14.8234C35.4978 14.991 35.2944 15.1232 35.0712 15.2126C34.569 15.2459 34.0646 15.2055 33.5741 15.0929C33.0749 15.0028 32.5616 15.0336 32.0768 15.1827C31.433 15.4372 30.849 16.0212 31.0886 17.5484L31.4778 18.6713Z"
                    fill="#008B89" />
            </g>
            <g style="mix-blend-mode:hue">
                <rect width="64" height="64" fill="#1FC1BF" />
            </g>
        </g>
    </g>
    <defs>
        <linearGradient id="paint0_linear_1112_9005" x1="54.122" y1="-1.23834" x2="37.4898"
            y2="19.1865" gradientUnits="userSpaceOnUse">
            <stop stop-color="white" stop-opacity="0" />
            <stop offset="1" stop-color="white" />
        </linearGradient>
        <linearGradient id="paint1_linear_1112_9005" x1="9.39649" y1="-6.58963" x2="18.7689"
            y2="18.0267" gradientUnits="userSpaceOnUse">
            <stop stop-color="white" stop-opacity="0" />
            <stop offset="1" stop-color="white" />
        </linearGradient>
        <linearGradient id="paint2_linear_1112_9005" x1="60.3431" y1="61.8973" x2="43.6234"
            y2="41.5441" gradientUnits="userSpaceOnUse">
            <stop stop-color="white" stop-opacity="0" />
            <stop offset="1" stop-color="white" />
        </linearGradient>
        <linearGradient id="paint3_linear_1112_9005" x1="0.326806" y1="61.5628" x2="21.6786"
            y2="46.1386" gradientUnits="userSpaceOnUse">
            <stop stop-color="white" stop-opacity="0" />
            <stop offset="1" stop-color="white" />
        </linearGradient>
        <clipPath id="clip0_1112_9005">
            <path
                d="M0 6.67826C0 2.98996 2.98996 0 6.67826 0H57.3217C61.01 0 64 2.98996 64 6.67826V57.3217C64 61.01 61.01 64 57.3217 64H6.67826C2.98996 64 0 61.01 0 57.3217V6.67826Z"
                fill="white" />
        </clipPath>
        <clipPath id="clip1_1112_9005">
            <path
                d="M0 6.67826C0 2.98996 2.98996 0 6.67826 0H57.3217C61.01 0 64 2.98996 64 6.67826V57.3217C64 61.01 61.01 64 57.3217 64H6.67826C2.98996 64 0 61.01 0 57.3217V6.67826Z"
                fill="white" />
        </clipPath>
        <clipPath id="clip2_1112_9005">
            <rect width="36" height="36" fill="white" transform="translate(14 14)" />
        </clipPath>
    </defs>
</svg>
    