<svg width="64" height="64" viewBox="0 0 64 64" fill="none" xmlns="http://www.w3.org/2000/svg">
    <g clip-path="url(#clip0_1112_6562)">
        <path
            d="M0 6.67826C0 2.98996 2.98996 0 6.67826 0H57.3217C61.01 0 64 2.98996 64 6.67826V57.3217C64 61.01 61.01 64 57.3217 64H6.67826C2.98996 64 0 61.01 0 57.3217V6.67826Z"
            fill="#FFD1D5" />
        <g clip-path="url(#clip1_1112_6562)">
            <path
                d="M0 6.67826C0 2.98996 2.98996 0 6.67826 0H57.3217C61.01 0 64 2.98996 64 6.67826V57.3217C64 61.01 61.01 64 57.3217 64H6.67826C2.98996 64 0 61.01 0 57.3217V6.67826Z"
                fill="#E8D6FF" />
            <path fill-rule="evenodd" clip-rule="evenodd"
                d="M30.6475 15.8508L31.6213 15.3135L32.5953 15.8508V39.3439H30.6475V15.8508Z"
                fill="#D7FFFC" stroke="#68DFDC" stroke-width="3.15192" stroke-miterlimit="2"
                stroke-linejoin="round" />
            <path
                d="M31.622 18.5877C33.2432 18.5877 34.5574 17.2735 34.5574 15.6523C34.5574 14.031 33.2432 12.7168 31.622 12.7168C30.0008 12.7168 28.6865 14.031 28.6865 15.6523C28.6865 17.2735 30.0008 18.5877 31.622 18.5877Z"
                stroke="#68DFDC" stroke-width="0.697924" stroke-miterlimit="1.5"
                stroke-linecap="round" stroke-linejoin="round" />
            <path
                d="M31.6218 17.6948C32.7494 17.6948 33.6635 16.7807 33.6635 15.6531C33.6635 14.5254 32.7494 13.6113 31.6218 13.6113C30.4942 13.6113 29.5801 14.5254 29.5801 15.6531C29.5801 16.7807 30.4942 17.6948 31.6218 17.6948Z"
                fill="#68DFDC" stroke="white" stroke-width="0.707026" stroke-miterlimit="1.5"
                stroke-linecap="round" stroke-linejoin="round" />
            <path fill-rule="evenodd" clip-rule="evenodd"
                d="M38.2364 32.7431H59.209C58.1438 35.2166 53.7763 36.9824 48.7238 36.9824C43.6712 36.9824 39.3038 35.2166 38.2364 32.7431Z"
                fill="url(#paint0_linear_1112_6562)" />
            <path fill-rule="evenodd" clip-rule="evenodd"
                d="M4.80187 43.7529H25.7744C24.7092 46.2264 20.3417 47.9922 15.2892 47.9922C10.2367 47.9922 5.86919 46.2264 4.80187 43.7529Z"
                fill="url(#paint1_linear_1112_6562)" />
            <path
                d="M15.4976 28.8174C16.953 28.8174 18.1329 27.6376 18.1329 26.1821C18.1329 24.7267 16.953 23.5469 15.4976 23.5469C14.0422 23.5469 12.8623 24.7267 12.8623 26.1821C12.8623 27.6376 14.0422 28.8174 15.4976 28.8174Z"
                fill="white" stroke="white" stroke-width="0.274926" stroke-miterlimit="1.5"
                stroke-linecap="round" stroke-linejoin="round" />
            <path
                d="M15.4974 27.3932C16.1658 27.3932 16.7076 26.8513 16.7076 26.1829C16.7076 25.5145 16.1658 24.9727 15.4974 24.9727C14.829 24.9727 14.2871 25.5145 14.2871 26.1829C14.2871 26.8513 14.829 27.3932 15.4974 27.3932Z"
                fill="#A3F5F1" stroke="white" stroke-width="0.707227" stroke-miterlimit="1.5"
                stroke-linecap="round" stroke-linejoin="round" />
            <path
                d="M15.497 26.6756C15.7693 26.6756 15.99 26.4548 15.99 26.1825C15.99 25.9102 15.7693 25.6895 15.497 25.6895C15.2247 25.6895 15.0039 25.9102 15.0039 26.1825C15.0039 26.4548 15.2247 26.6756 15.497 26.6756Z"
                fill="#B6F9E8" />
            <path
                d="M48.8004 19.7336C50.1259 19.7336 51.2004 18.6591 51.2004 17.3336C51.2004 16.0081 50.1259 14.9336 48.8004 14.9336C47.4749 14.9336 46.4004 16.0081 46.4004 17.3336C46.4004 18.6591 47.4749 19.7336 48.8004 19.7336Z"
                fill="#A3F5F1" stroke="white" stroke-width="0.468712" stroke-miterlimit="1.5"
                stroke-linecap="round" stroke-linejoin="round" />
            <path
                d="M48.7438 18.1926C49.236 18.1926 49.6351 17.7573 49.6351 17.2203C49.6351 16.6834 49.236 16.248 48.7438 16.248C48.2516 16.248 47.8525 16.6834 47.8525 17.2203C47.8525 17.7573 48.2516 18.1926 48.7438 18.1926Z"
                stroke="white" stroke-width="0.469621" stroke-miterlimit="1.5"
                stroke-linecap="round" stroke-linejoin="round" />
            <path d="M31.6214 15.6514C26.8152 25.3315 15.6648 26.0772 15.4668 26.182"
                stroke="#1FC1BF" stroke-width="0.697924" stroke-miterlimit="1.5"
                stroke-linecap="round" stroke-linejoin="round" />
            <path fill-rule="evenodd" clip-rule="evenodd"
                d="M8.26716 45.0971C8.2468 45.1963 8.24857 45.4145 8.30419 45.4997C8.36005 45.5849 8.55694 45.6701 8.65456 45.6889C8.55694 45.6701 8.34136 45.676 8.25606 45.7341C8.17101 45.7923 8.08317 45.9932 8.06281 46.0924C8.08317 45.9932 8.0814 45.775 8.02554 45.6898C7.96967 45.6045 7.77278 45.5193 7.67517 45.5006C7.77278 45.5193 7.98836 45.5135 8.07367 45.4554C8.15896 45.3973 8.2468 45.1963 8.26716 45.0971Z"
                stroke="white" stroke-width="0.496815" stroke-miterlimit="1.5"
                stroke-linejoin="round" />
            <path fill-rule="evenodd" clip-rule="evenodd"
                d="M36.1473 28.4955C36.1819 28.6391 36.3402 28.941 36.4997 29.0422C36.6592 29.1435 36.9937 29.1548 37.1348 29.1228C36.9937 29.1548 36.6991 29.3091 36.6025 29.4685C36.5058 29.628 36.5019 29.9667 36.5366 30.1103C36.5019 29.9667 36.3433 29.665 36.1837 29.5637C36.0242 29.4624 35.6897 29.4511 35.5487 29.4832C35.6897 29.4511 35.9843 29.2969 36.081 29.1374C36.1776 28.9779 36.1819 28.6391 36.1473 28.4955Z"
                fill="white" />
            <path fill-rule="evenodd" clip-rule="evenodd"
                d="M28.0859 27.0856C28.0605 27.1887 28.1364 27.5557 28.3219 27.8648C28.5074 28.174 28.7926 28.409 28.8939 28.4325C28.7926 28.409 28.4288 28.4939 28.1197 28.6884C27.8105 28.8831 27.5724 29.1773 27.547 29.2805C27.5724 29.1773 27.4965 28.8104 27.311 28.5012C27.1255 28.1921 26.8398 27.9569 26.7384 27.9334C26.8398 27.9569 27.204 27.8722 27.5132 27.6776C27.8224 27.483 28.0605 27.1887 28.0859 27.0856Z"
                fill="white" />
            <path fill-rule="evenodd" clip-rule="evenodd"
                d="M12.1818 10.6152C12.1818 11.1221 12.4145 12.1931 12.7798 12.5593C13.1464 12.9256 14.2176 13.1582 14.7246 13.1582C14.2176 13.1582 13.1464 13.3907 12.7798 13.7571C12.4145 14.1234 12.1818 15.1943 12.1818 15.7011C12.1818 15.1943 11.9491 14.1234 11.5825 13.7571C11.2159 13.3907 10.1447 13.1582 9.6377 13.1582C10.1447 13.1582 11.2159 12.9256 11.5825 12.5593C11.9491 12.1931 12.1818 11.1221 12.1818 10.6152Z"
                fill="white" />
            <path fill-rule="evenodd" clip-rule="evenodd"
                d="M38.4003 0C38.4003 0.744147 38.7419 2.31641 39.2781 2.85406C39.8162 3.39189 41.3885 3.73333 42.1327 3.73333C41.3885 3.73333 39.8162 4.07477 39.2781 4.6126C38.7419 5.15043 38.4003 6.72252 38.4003 7.46667C38.4003 6.72252 38.0587 5.15043 37.5206 4.6126C36.9825 4.07477 35.4102 3.73333 34.666 3.73333C35.4102 3.73333 36.9825 3.39189 37.5206 2.85406C38.0587 2.31641 38.4003 0.744147 38.4003 0Z"
                fill="white" />
            <path fill-rule="evenodd" clip-rule="evenodd"
                d="M16.0009 53.8662C16.0009 54.6104 16.3425 56.1826 16.8787 56.7203C17.4168 57.2581 18.9891 57.5995 19.7333 57.5995C18.9891 57.5995 17.4168 57.941 16.8787 58.4788C16.3425 59.0166 16.0009 60.5887 16.0009 61.3329C16.0009 60.5887 15.6593 59.0166 15.1212 58.4788C14.5831 57.941 13.0108 57.5995 12.2666 57.5995C13.0108 57.5995 14.5831 57.2581 15.1212 56.7203C15.6593 56.1826 16.0009 54.6104 16.0009 53.8662Z"
                fill="white" />
            <path fill-rule="evenodd" clip-rule="evenodd"
                d="M47.3664 48.1387C47.3664 48.6455 47.5991 49.7165 47.9644 50.0827C48.331 50.449 49.4022 50.6816 49.9092 50.6816C49.4022 50.6816 48.331 50.9142 47.9644 51.2805C47.5991 51.6469 47.3664 52.7177 47.3664 53.2246C47.3664 52.7177 47.1337 51.6469 46.7671 51.2805C46.4005 50.9142 45.3293 50.6816 44.8223 50.6816C45.3293 50.6816 46.4005 50.449 46.7671 50.0827C47.1337 49.7165 47.3664 48.6455 47.3664 48.1387Z"
                fill="white" />
            <path d="M48.5342 17.5728C47.1521 19.8433 34.1246 19.7966 31.8457 17.0674"
                stroke="#1FC1BF" stroke-width="0.697924" stroke-miterlimit="1.5"
                stroke-linecap="round" stroke-linejoin="round" />
            <path
                d="M31.3629 15.4531C31.3263 15.4943 31.3061 15.5474 31.3061 15.6025V45.0287C31.3061 45.1531 31.4069 45.2539 31.5312 45.2539H31.7115C31.8358 45.2539 31.9366 45.1531 31.9366 45.0287V15.6025C31.9366 15.5474 31.9164 15.4942 31.8799 15.453L31.7897 15.3515C31.747 15.3034 31.6857 15.2758 31.6214 15.2758C31.557 15.2758 31.4957 15.3034 31.453 15.3515L31.3629 15.4531Z"
                fill="#1FC1BF" stroke="#1FC1BF" stroke-width="0.450274" stroke-linejoin="round" />
            <path d="M33.5733 37.1504H29.6709V37.9577H33.5733V37.1504Z" fill="#1FC1BF" />
            <path d="M35.4395 36.2783H27.8047V36.6494H35.4395V36.2783Z" fill="#1FC1BF" />
            <path opacity="0.5"
                d="M47.1889 17.9962L46.8633 17.8525L46.7104 18.1898L47.036 18.3335L47.1889 17.9962Z"
                fill="white" />
            <path
                d="M59.5101 32.1245L59.2832 32.0244L59.1767 32.2594L59.4035 32.3595L59.5101 32.1245Z"
                fill="white" />
            <path opacity="0.5"
                d="M5.72578 42.9016L5.48633 42.9121L5.49991 43.1939L5.73936 43.1835L5.72578 42.9016Z"
                fill="white" />
            <path
                d="M9.65741 46.1716L9.55957 46.0791L9.4509 46.194L9.54874 46.2865L9.65741 46.1716Z"
                fill="white" />
            <path opacity="0.5"
                d="M51.8938 22.2876C52.0633 22.2876 52.2007 22.1502 52.2007 21.9807C52.2007 21.8112 52.0633 21.6738 51.8938 21.6738C51.7243 21.6738 51.5869 21.8112 51.5869 21.9807C51.5869 22.1502 51.7243 22.2876 51.8938 22.2876Z"
                stroke="white" stroke-width="0.664022" stroke-miterlimit="1.5"
                stroke-linejoin="round" />
            <path
                d="M7.01169 44.8144C7.15136 44.8144 7.26459 44.7012 7.26459 44.5615C7.26459 44.4218 7.15136 44.3086 7.01169 44.3086C6.87202 44.3086 6.75879 44.4218 6.75879 44.5615C6.75879 44.7012 6.87202 44.8144 7.01169 44.8144Z"
                stroke="white" stroke-width="0.580536" stroke-miterlimit="1.5"
                stroke-linejoin="round" />
            <path
                d="M12.8816 46.769C12.9219 46.769 12.9545 46.7363 12.9545 46.696C12.9545 46.6557 12.9219 46.623 12.8816 46.623C12.8413 46.623 12.8086 46.6557 12.8086 46.696C12.8086 46.7363 12.8413 46.769 12.8816 46.769Z"
                fill="white" />
            <path opacity="0.5"
                d="M10.8935 26.8173C11.0332 26.8173 11.1464 26.7041 11.1464 26.5644C11.1464 26.4248 11.0332 26.3115 10.8935 26.3115C10.7539 26.3115 10.6406 26.4248 10.6406 26.5644C10.6406 26.7041 10.7539 26.8173 10.8935 26.8173Z"
                stroke="white" stroke-width="0.580536" stroke-miterlimit="1.5"
                stroke-linejoin="round" />
            <path opacity="0.5"
                d="M4.36523 41.9697C4.40622 41.9697 4.43945 41.9365 4.43945 41.8955C4.43945 41.8545 4.40622 41.8213 4.36523 41.8213C4.32424 41.8213 4.29102 41.8545 4.29102 41.8955C4.29102 41.9365 4.32424 41.9697 4.36523 41.9697Z"
                fill="white" />
            <path d="M38.2363 32.744L48.7228 17.2598" stroke="#1FC1BF" stroke-width="0.697924"
                stroke-miterlimit="1.5" stroke-linecap="round" stroke-linejoin="round" />
            <path d="M56.6726 29.3579L48.9336 17.4502" stroke="#1FC1BF" stroke-width="0.698667"
                stroke-miterlimit="1.5" stroke-linejoin="round" />
            <path d="M25.7739 43.7532L15.498 26.1826" stroke="#1FC1BF" stroke-width="0.697924"
                stroke-miterlimit="1.5" stroke-linecap="round" stroke-linejoin="round" />
            <path
                d="M15.4977 26.3832C15.6087 26.3832 15.6986 26.2933 15.6986 26.1823C15.6986 26.0714 15.6087 25.9814 15.4977 25.9814C15.3868 25.9814 15.2969 26.0714 15.2969 26.1823C15.2969 26.2933 15.3868 26.3832 15.4977 26.3832Z"
                fill="white" stroke="#C4DBD9" stroke-width="0.829394" stroke-miterlimit="1.5"
                stroke-linecap="round" stroke-linejoin="round" />
            <path d="M7.34375 39.5785L13.8274 28.9277" stroke="#1FC1BF" stroke-width="0.697924"
                stroke-miterlimit="1.5" stroke-linejoin="round" />
            <path opacity="0.5" d="M14.0439 35.377V39.7661" stroke="white" stroke-width="1.6562"
                stroke-miterlimit="1.5" stroke-linecap="round" stroke-linejoin="round" />
            <path d="M10.7119 27.6279V28.9652" stroke="white" stroke-width="1.06667"
                stroke-miterlimit="1.5" stroke-linecap="round" stroke-linejoin="round" />
            <path opacity="0.5" d="M16.2988 38.3945V40.8971" stroke="white" stroke-width="1.19029"
                stroke-miterlimit="1.5" stroke-linecap="round" stroke-linejoin="round" />
            <path opacity="0.5" d="M58.5469 37.1191V37.7574" stroke="white" stroke-width="0.747681"
                stroke-miterlimit="1.5" stroke-linecap="round" stroke-linejoin="round" />
            <path
                d="M48.7441 17.3817C48.8783 17.3817 48.9871 17.2728 48.9871 17.1386C48.9871 17.0043 48.8783 16.8955 48.7441 16.8955C48.6098 16.8955 48.501 17.0043 48.501 17.1386C48.501 17.2728 48.6098 17.3817 48.7441 17.3817Z"
                fill="white" stroke="#00FFE8" stroke-width="0.551951" stroke-miterlimit="1.5"
                stroke-linecap="round" stroke-linejoin="round" />
            <path
                d="M31.6211 16.5683C32.127 16.5683 32.5371 16.1582 32.5371 15.6523C32.5371 15.1464 32.127 14.7363 31.6211 14.7363C31.1152 14.7363 30.7051 15.1464 30.7051 15.6523C30.7051 16.1582 31.1152 16.5683 31.6211 16.5683Z"
                stroke="white" stroke-width="0.697924" stroke-miterlimit="1.5"
                stroke-linecap="round" stroke-linejoin="round" />
            <path
                d="M31.6212 16.3C31.9789 16.3 32.2688 16.0101 32.2688 15.6525C32.2688 15.2948 31.9789 15.0049 31.6212 15.0049C31.2636 15.0049 30.9736 15.2948 30.9736 15.6525C30.9736 16.0101 31.2636 16.3 31.6212 16.3Z"
                stroke="white" stroke-width="0.697924" stroke-miterlimit="1.5"
                stroke-linecap="round" stroke-linejoin="round" />
            <path fill-rule="evenodd" clip-rule="evenodd"
                d="M21.1012 22.3345C20.9898 22.7142 20.9254 23.564 21.1132 23.9132C21.3018 24.2627 22.0372 24.6562 22.4094 24.7601C22.0372 24.6562 21.1996 24.6111 20.85 24.8104C20.5013 25.01 20.0952 25.7645 19.9839 26.1442C20.0952 25.7645 20.1596 24.9147 19.971 24.5652C19.7823 24.2157 19.047 23.8222 18.6747 23.7183C19.047 23.8222 19.8845 23.8673 20.2341 23.668C20.5837 23.4687 20.9898 22.7142 21.1012 22.3345Z"
                fill="white" />
            <path fill-rule="evenodd" clip-rule="evenodd"
                d="M58.6795 32.1422C58.6464 32.2552 58.6272 32.5079 58.6831 32.6117C58.7392 32.7157 58.9579 32.8327 59.0685 32.8636C58.9579 32.8327 58.7088 32.8193 58.6048 32.8786C58.5011 32.9379 58.3803 33.1623 58.3472 33.2752C58.3803 33.1623 58.3995 32.9096 58.3434 32.8057C58.2873 32.7017 58.0686 32.5847 57.9579 32.5538C58.0686 32.5847 58.3177 32.5981 58.4216 32.5388C58.5256 32.4796 58.6464 32.2552 58.6795 32.1422Z"
                fill="white" />
            <path opacity="0.5"
                d="M16.839 35.3262L16.4404 34.8154L15.8588 35.161L16.2574 35.6718L16.839 35.3262Z"
                fill="white" />
            <path fill-rule="evenodd" clip-rule="evenodd"
                d="M31.2704 44.6381C31.3019 44.4692 31.4468 44.3477 31.6231 44.3477C31.7932 44.3477 31.9381 44.4692 31.9759 44.6381C32.4358 47.0425 33.3366 49.7607 34.5209 50.9488C35.7871 52.2131 38.7856 53.1485 41.2927 53.5826C41.3557 53.5927 41.4061 53.655 41.3998 53.7243C41.3998 53.7942 41.3431 53.8484 41.2675 53.8484C36.4296 53.8509 26.8105 53.8509 21.9726 53.8509C21.9033 53.8509 21.8403 53.7961 21.834 53.7249C21.834 53.6537 21.8843 53.5907 21.9536 53.58C24.4608 53.1485 27.453 52.2131 28.7191 50.9488C29.9097 49.7607 30.8043 47.0425 31.2704 44.6381Z"
                fill="url(#paint2_linear_1112_6562)" />
            <path fill-rule="evenodd" clip-rule="evenodd"
                d="M57.5901 1.94851L37.9209 22.292L51.1097 -5.78053C51.1163 -4.12054 50.6284 3.77729 57.5901 1.94851Z"
                fill="url(#paint3_linear_1112_6562)" />
            <path fill-rule="evenodd" clip-rule="evenodd"
                d="M13.8904 -7.99967L21.6738 19.2061L3.95671 -6.25205C5.39762 -5.42777 11.9934 -1.05628 13.8904 -7.99967Z"
                fill="url(#paint4_linear_1112_6562)" />
            <path fill-rule="evenodd" clip-rule="evenodd"
                d="M56.5316 64.6643L40.4941 41.3506L65.3926 59.846C63.7643 59.5231 56.1202 57.4782 56.5316 64.6643Z"
                fill="url(#paint5_linear_1112_6562)" />
            <g style="mix-blend-mode:hue">
                <rect width="64" height="64" fill="#8668AD" />
            </g>
        </g>
    </g>
    <defs>
        <linearGradient id="paint0_linear_1112_6562" x1="48.7316" y1="36.3016" x2="48.6089"
            y2="28.3195" gradientUnits="userSpaceOnUse">
            <stop stop-color="#A3F5F1" />
            <stop offset="1" stop-color="#1FC1BF" />
        </linearGradient>
        <linearGradient id="paint1_linear_1112_6562" x1="15.4685" y1="47.764" x2="15.1743"
            y2="39.3293" gradientUnits="userSpaceOnUse">
            <stop stop-color="#A3F5F1" />
            <stop offset="1" stop-color="#1FC1BF" />
        </linearGradient>
        <linearGradient id="paint2_linear_1112_6562" x1="31.5102" y1="43.4619" x2="31.6622"
            y2="54.5561" gradientUnits="userSpaceOnUse">
            <stop stop-color="#A3F5F1" />
            <stop offset="1" stop-color="#1FC1BF" />
        </linearGradient>
        <linearGradient id="paint3_linear_1112_6562" x1="54.122" y1="-1.23834" x2="37.4898"
            y2="19.1865" gradientUnits="userSpaceOnUse">
            <stop stop-color="white" stop-opacity="0" />
            <stop offset="1" stop-color="white" />
        </linearGradient>
        <linearGradient id="paint4_linear_1112_6562" x1="9.39649" y1="-6.58963" x2="18.7689"
            y2="18.0267" gradientUnits="userSpaceOnUse">
            <stop stop-color="white" stop-opacity="0" />
            <stop offset="1" stop-color="white" />
        </linearGradient>
        <linearGradient id="paint5_linear_1112_6562" x1="60.3431" y1="61.8973" x2="43.6234"
            y2="41.5441" gradientUnits="userSpaceOnUse">
            <stop stop-color="white" stop-opacity="0" />
            <stop offset="1" stop-color="white" />
        </linearGradient>
        <clipPath id="clip0_1112_6562">
            <path
                d="M0 6.67826C0 2.98996 2.98996 0 6.67826 0H57.3217C61.01 0 64 2.98996 64 6.67826V57.3217C64 61.01 61.01 64 57.3217 64H6.67826C2.98996 64 0 61.01 0 57.3217V6.67826Z"
                fill="white" />
        </clipPath>
        <clipPath id="clip1_1112_6562">
            <path
                d="M0 6.67826C0 2.98996 2.98996 0 6.67826 0H57.3217C61.01 0 64 2.98996 64 6.67826V57.3217C64 61.01 61.01 64 57.3217 64H6.67826C2.98996 64 0 61.01 0 57.3217V6.67826Z"
                fill="white" />
        </clipPath>
    </defs>
</svg>