<svg width="64" height="64" viewBox="0 0 64 64" fill="none" xmlns="http://www.w3.org/2000/svg">
<g clip-path="url(#clip0_1112_9134)">
<path d="M0 6.67826C0 2.98996 2.98996 0 6.67826 0H57.3217C61.01 0 64 2.98996 64 6.67826V57.3217C64 61.01 61.01 64 57.3217 64H6.67826C2.98996 64 0 61.01 0 57.3217V6.67826Z" fill="#D6E4FF"/>
<circle opacity="0.64" cx="15.4671" cy="13.8665" r="1.06667" fill="#FAFBFF"/>
<circle cx="8.53359" cy="20.266" r="1.6" fill="#FAFBFF"/>
<circle opacity="0.24" cx="61.8669" cy="58.1326" r="14.9333" fill="#FAFBFF"/>
<path opacity="0.52" d="M7.14434 53.1813L7.01345 52.7844C8.83565 52.1773 9.81266 50.2101 9.20556 48.3879L9.60247 48.257C10.2096 50.0792 12.1767 51.0562 13.9989 50.4491L14.1298 50.846C12.3076 51.4531 11.3306 53.4203 11.9377 55.2425L11.5408 55.3734C10.9337 53.5512 8.96654 52.5742 7.14434 53.1813Z" fill="white"/>
<path opacity="0.51" d="M50.9365 55.5633L50.9555 55.3937C51.7348 55.4786 52.432 54.9151 52.5169 54.1358L52.6864 54.1548C52.6015 54.9341 53.1651 55.6313 53.9444 55.7161L53.9254 55.8856C53.1461 55.8008 52.4489 56.3643 52.364 57.1436L52.1945 57.1246C52.2794 56.3453 51.7158 55.6481 50.9365 55.5633Z" fill="white"/>
<circle opacity="0.24" cx="-2.66621" cy="22.9324" r="11.2" fill="#FAFBFF"/>
<path fill-rule="evenodd" clip-rule="evenodd" d="M12.4213 -1.78774C11.7147 -1.25736 10.4645 0.188224 10.3376 1.08226C10.2102 1.97677 11.0063 3.71341 11.5367 4.42008C11.0063 3.71341 9.56116 2.46387 8.66666 2.33639C7.77277 2.20846 6.03552 3.00503 5.32884 3.53541C6.03552 3.00503 7.28569 1.55947 7.41301 0.666044C7.54049 -0.228457 6.7439 -1.96574 6.21352 -2.67241C6.7439 -1.96574 8.1895 -0.715559 9.084 -0.588084C9.97742 -0.460762 11.7147 -1.25736 12.4213 -1.78774Z" fill="white"/>
<path fill-rule="evenodd" clip-rule="evenodd" d="M52.2643 15.5413C51.8365 15.1135 50.7358 14.4057 50.1175 14.4061C49.4988 14.4061 48.3985 15.1135 47.9707 15.5413C48.3985 15.1135 49.1059 14.0132 49.1059 13.3945C49.1063 12.7762 48.3985 11.6755 47.9707 11.2477C48.3985 11.6755 49.4992 12.3833 50.1171 12.3833C50.7358 12.3833 51.8365 11.6755 52.2643 11.2477C51.8365 11.6755 51.1287 12.7762 51.1287 13.3949C51.1287 14.0129 51.8365 15.1135 52.2643 15.5413Z" fill="white"/>
<path fill-rule="evenodd" clip-rule="evenodd" d="M23.5103 24.1133L22.2979 25.7448L24.1166 26.9063L24.7229 25.6273L23.5103 24.1133Z" fill="white" stroke="white" stroke-width="0.218962" stroke-miterlimit="1.5" stroke-linecap="round" stroke-linejoin="round"/>
<path fill-rule="evenodd" clip-rule="evenodd" d="M32.7902 11.7539V52.1873L49.1738 45.5621C34.0465 35.0851 34.7893 22.4324 34.7893 14.2298L32.7902 11.7539Z" fill="url(#paint0_linear_1112_9134)"/>
<path fill-rule="evenodd" clip-rule="evenodd" d="M32.7889 11.7538V52.1872L16.4053 45.5619C31.5326 35.085 30.6347 17.0737 30.6347 8.87109L32.7889 11.7538Z" fill="url(#paint1_linear_1112_9134)"/>
<path fill-rule="evenodd" clip-rule="evenodd" d="M38.1675 46.178L31.4439 47.075C24.5083 46.3216 17.574 45.5541 11.0625 40.5604C11.0625 40.5604 19.8236 38.1095 25.6337 39.9954C31.4439 41.8812 38.1675 46.178 38.1675 46.178Z" fill="#0E4CAF"/>
<path fill-rule="evenodd" clip-rule="evenodd" d="M14.7853 53.7476C14.6671 53.6086 14.5562 53.4674 14.4529 53.3261C12.8769 50.8987 22.7996 47.5414 33.1341 46.9528C43.3314 46.3736 52.7096 49.173 51.9183 51.8264C51.907 51.8617 51.8943 51.897 51.8809 51.9323C50.3251 56.2126 42.3642 59.4757 32.7899 59.4757C24.6233 59.4757 17.6303 57.1025 14.7853 53.7476Z" fill="url(#paint2_linear_1112_9134)"/>
<path fill-rule="evenodd" clip-rule="evenodd" d="M14.4539 53.3265C13.7867 52.4092 13.4248 51.4235 13.4248 50.4011C13.4248 45.3918 22.1026 41.3242 32.7912 41.3242C43.4796 41.3242 52.1574 45.3918 52.1574 50.4011C52.1574 50.8854 52.0761 51.3624 51.9196 51.8271C52.7106 49.1733 43.3327 46.3751 33.1352 46.9548C22.8006 47.5418 12.8781 50.9001 14.4539 53.3265Z" fill="url(#paint3_linear_1112_9134)"/>
<path d="M24.7952 12.7963C24.7952 13.3091 24.3794 13.7249 23.8666 13.7249C23.3537 13.7249 22.938 13.3091 22.938 12.7963C22.938 12.2834 23.3537 11.8677 23.8666 11.8677C24.3794 11.8677 24.7952 12.2834 24.7952 12.7963Z" stroke="white" stroke-opacity="0.5" stroke-width="0.227507"/>
<path opacity="0.8" d="M8.43019 56.2754C8.8641 56.2754 9.21585 55.9237 9.21585 55.4898C9.21585 55.0558 8.8641 54.7041 8.43019 54.7041C7.99628 54.7041 7.64453 55.0558 7.64453 55.4898C7.64453 55.9237 7.99628 56.2754 8.43019 56.2754Z" fill="white"/>
<path d="M5.89258 40.9995C5.89258 41.1449 5.77475 41.2627 5.6294 41.2627C5.48405 41.2627 5.36622 41.1449 5.36622 40.9995C5.36622 40.8542 5.48405 40.7363 5.6294 40.7363C5.77475 40.7363 5.89258 40.8542 5.89258 40.9995Z" fill="white" stroke="white" stroke-width="0.0644782"/>
<path d="M60.4165 56.2801C60.4165 56.5053 60.2339 56.688 60.0086 56.688C59.7834 56.688 59.6007 56.5053 59.6007 56.2801C59.6007 56.0548 59.7833 55.8722 60.0086 55.8722C60.2339 55.8722 60.4165 56.0548 60.4165 56.2801Z" stroke="white" stroke-opacity="0.5" stroke-width="0.0999263"/>
<path opacity="0.5" fill-rule="evenodd" clip-rule="evenodd" d="M13.7328 19.5078L5.84277 21.2147L11.9416 28.6357" fill="#1FC1BF"/>
<path opacity="0.5" fill-rule="evenodd" clip-rule="evenodd" d="M50.667 30.9326L58.667 32.8276L52.267 41.066" fill="#1FC1BF"/>
<path opacity="0.7" fill-rule="evenodd" clip-rule="evenodd" d="M11.9424 28.6357L18.7661 20.831L13.7336 19.5078" fill="#69A0F7"/>
<path opacity="0.7" fill-rule="evenodd" clip-rule="evenodd" d="M52.2676 41.066L45.8676 32.4015L50.6676 30.9326" fill="#69A0F7"/>
<path fill-rule="evenodd" clip-rule="evenodd" d="M36.7701 12.6602C36.77 14.4488 36.8705 16.2315 37.2265 17.9885L36.42 18.1519C36.0531 16.3411 35.9472 14.5037 35.9473 12.6602L36.7701 12.6602Z" fill="white" stroke="white" stroke-width="1.62816" stroke-linecap="square"/>
<path fill-rule="evenodd" clip-rule="evenodd" d="M34.3394 21.4161C34.3393 22.7817 34.3608 22.9877 34.6208 24.2708L33.8143 24.4342C33.5389 23.075 33.5165 22.8078 33.5166 21.416L34.3394 21.4161Z" fill="#F2FBEB"/>
<path fill-rule="evenodd" clip-rule="evenodd" d="M25.5787 28.9825C25.5788 30.5564 25.5538 30.7939 25.25 32.2727L26.1922 32.461C26.514 30.8945 26.5401 30.5865 26.54 28.9824L25.5787 28.9825Z" fill="#F2FBEB"/>
<path fill-rule="evenodd" clip-rule="evenodd" d="M30.5576 23.3105C30.4619 26.6272 30.2741 27.1692 29.627 30.3194L31.634 30.7206C32.1468 27.5463 32.3752 26.7275 32.375 23.3105H30.5576Z" fill="white"/>
<path fill-rule="evenodd" clip-rule="evenodd" d="M32.7785 4.7997L31.9057 5.63762L32.5714 6.33101L33.4443 5.49316L32.7785 4.7997Z" fill="white" stroke="white" stroke-width="0.542719" stroke-linecap="square"/>
<path fill-rule="evenodd" clip-rule="evenodd" d="M34.0689 8.01763L34.0689 9.22757H35.0301L35.0303 8.01758L34.0689 8.01763Z" fill="white" stroke="white" stroke-width="1.62816" stroke-linecap="square"/>
<path d="M61.5752 53.0408L61.2891 53.2148L61.4631 53.501L61.7492 53.3269L61.5752 53.0408Z" fill="white"/>
<path opacity="0.8" fill-rule="evenodd" clip-rule="evenodd" d="M56.2975 51.1117C56.4658 51.296 56.9043 51.6065 57.1596 51.6189C57.4148 51.6313 57.8801 51.3595 58.0642 51.1913C57.8801 51.3595 57.5688 51.8 57.5565 52.0536C57.5458 52.3089 57.8153 52.7737 57.9836 52.958C57.8153 52.7737 57.3768 52.4632 57.1215 52.4508C56.8679 52.4401 56.401 52.7102 56.2171 52.8782C56.401 52.7102 56.7139 52.2715 56.7246 52.0162C56.7354 51.7608 56.4658 51.296 56.2975 51.1117Z" fill="white"/>
<path d="M25.4497 18.5449C25.411 18.4633 25.3899 18.3705 25.3786 18.2805C25.3128 18.3429 25.2378 18.4013 25.1562 18.4399C25.0745 18.4786 24.9817 18.4996 24.8916 18.511C24.9541 18.5768 25.0125 18.6519 25.0512 18.7336C25.0898 18.8152 25.1108 18.908 25.1222 18.9979C25.188 18.9355 25.2631 18.8771 25.3448 18.8385M25.4497 18.5449C25.4497 18.5449 25.4497 18.5449 25.4496 18.5448L25.6602 18.4452L25.4497 18.5449ZM25.4497 18.5449C25.4884 18.6266 25.5468 18.7017 25.6092 18.7674M25.6092 18.7674C25.5192 18.7788 25.4264 18.7998 25.3448 18.8385M25.6092 18.7674C25.6219 18.7809 25.6348 18.794 25.6478 18.8066C25.7134 18.8707 25.7881 18.9321 25.8649 18.9885L25.9471 18.7586C25.8519 18.7535 25.7552 18.7537 25.6639 18.7616C25.6458 18.7632 25.6276 18.7651 25.6092 18.7674ZM25.3448 18.8385C25.3447 18.8385 25.3447 18.8385 25.3447 18.8385L25.4443 19.0491L25.3448 18.8385ZM25.131 19.3358C24.9795 19.5289 24.8467 19.7682 24.7922 19.9208C24.8467 19.7682 24.8957 19.499 24.901 19.2536L25.131 19.3358Z" fill="white" stroke="white" stroke-width="0.465876"/>
<path fill-rule="evenodd" clip-rule="evenodd" d="M37.0902 34.4503C36.999 34.7057 36.9233 35.2875 37.042 35.5379C37.1607 35.7886 37.6584 36.0988 37.9138 36.1901C37.6584 36.0988 37.0768 36.0232 36.8262 36.1418C36.5756 36.2603 36.2653 36.7582 36.174 37.0136C36.2653 36.7582 36.341 36.1764 36.2225 35.9261C36.1038 35.6754 35.6059 35.3651 35.3505 35.2738C35.6059 35.3651 36.1877 35.4408 36.4383 35.3221C36.6887 35.2036 36.999 34.7057 37.0902 34.4503Z" fill="#F2FBEB"/>
<path fill-rule="evenodd" clip-rule="evenodd" d="M11.0625 40.5609C16.8764 37.8934 34.509 35.2683 49.1554 43.4026C49.5196 43.6051 49.84 43.8971 50.241 44.3138C50.6417 44.7282 51.0377 45.4557 51.2086 45.7829C52.8892 48.9919 52.8195 49.2109 52.4539 51.1768C52.1054 48.5705 45.5426 45.1096 32.5737 45.5852C24.3819 39.3366 18.3778 40.5609 11.0625 40.5609Z" fill="url(#paint4_linear_1112_9134)"/>
<path d="M27.689 -1.06738C41.7618 1.42488 58.8785 7.61214 57.5248 17.5292C55.1036 35.2717 2.08853 26.3445 -1.06641 45.866" stroke="white" stroke-opacity="0.8" stroke-width="0.533333" stroke-linecap="round"/>
<g style="mix-blend-mode:hue">
<rect width="64" height="64" fill="#D6E4FF"/>
</g>
</g>
<defs>
<linearGradient id="paint0_linear_1112_9134" x1="40.982" y1="11.7539" x2="40.982" y2="41.1577" gradientUnits="userSpaceOnUse">
<stop stop-color="#FAFBFF"/>
<stop offset="1" stop-color="#AAC9FD"/>
</linearGradient>
<linearGradient id="paint1_linear_1112_9134" x1="22.0731" y1="75.5261" x2="54.9699" y2="56.8503" gradientUnits="userSpaceOnUse">
<stop offset="0.690949" stop-color="#D6E4FF"/>
<stop offset="0.878762" stop-color="#FAFBFF"/>
</linearGradient>
<linearGradient id="paint2_linear_1112_9134" x1="33.1261" y1="46.876" x2="33.1261" y2="59.8423" gradientUnits="userSpaceOnUse">
<stop stop-color="#68DFDC"/>
<stop offset="1" stop-color="#3374DB"/>
</linearGradient>
<linearGradient id="paint3_linear_1112_9134" x1="13.4248" y1="47.3253" x2="33.2692" y2="41.3242" gradientUnits="userSpaceOnUse">
<stop stop-color="#68DFDC"/>
<stop offset="1" stop-color="#69A0F7"/>
</linearGradient>
<linearGradient id="paint4_linear_1112_9134" x1="25.4554" y1="58.3139" x2="30.2117" y2="35.8915" gradientUnits="userSpaceOnUse">
<stop offset="0.690949" stop-color="#D6E4FF"/>
<stop offset="0.878762" stop-color="white"/>
</linearGradient>
<clipPath id="clip0_1112_9134">
<path d="M0 6.67826C0 2.98996 2.98996 0 6.67826 0H57.3217C61.01 0 64 2.98996 64 6.67826V57.3217C64 61.01 61.01 64 57.3217 64H6.67826C2.98996 64 0 61.01 0 57.3217V6.67826Z" fill="white"/>
</clipPath>
</defs>
</svg>
