<svg width="22" height="22" viewBox="0 0 22 22" fill="none" xmlns="http://www.w3.org/2000/svg">
    <path
        d="M5.40264 3.23837C6.49872 2.84869 7.76963 3.09251 8.64694 3.96981C9.52449 4.84737 9.76821 6.11876 9.37806 7.21505L19.0178 16.8549L17.1322 18.7405L7.49146 9.10104C6.39538 9.4907 5.12447 9.24688 4.24716 8.36959C3.36961 7.49204 3.1259 6.22065 3.51604 5.12436L5.50424 7.11252C6.02494 7.63321 6.86916 7.63321 7.38985 7.11252C7.91056 6.59181 7.91056 5.74759 7.38985 5.2269L5.40264 3.23837ZM14.6181 4.91262L17.4465 3.34127L18.7036 4.59836L17.1322 7.42678L15.5608 7.74105L13.6752 9.6267L12.4182 8.36959L14.3038 6.48397L14.6181 4.91262ZM8.33267 11.8265L10.2183 13.7122L5.81851 18.1119C5.29781 18.6327 4.45359 18.6327 3.93289 18.1119C3.44282 17.6219 3.414 16.8452 3.84641 16.3215L3.93289 16.2263L8.33267 11.8265Z"
        fill="black" />
</svg>
    