<svg width="22" height="22" viewBox="0 0 22 22" fill="none" xmlns="http://www.w3.org/2000/svg">
    <path
        d="M12.0633 2.34621L14.9522 7.34992C15.1976 7.77507 15.0519 8.3187 14.6268 8.56416L13.4716 9.23006L14.361 10.7704L12.8213 11.6593L11.932 10.119L10.7778 10.7864C10.3526 11.0318 9.80898 10.8862 9.56356 10.461L7.92996 7.63216C6.10563 8.18567 4.77778 9.88064 4.77778 11.8858C4.77778 12.4417 4.87982 12.9737 5.0662 13.4642C5.75484 13.0271 6.57016 12.7747 7.44445 12.7747C8.94141 12.7747 10.2655 13.5148 11.0708 14.649L17.905 10.7039L18.7939 12.2436L11.7909 16.2867C11.8551 16.5874 11.8889 16.8993 11.8889 17.2191C11.8889 17.5238 11.8582 17.8213 11.7999 18.1086L19 18.108V19.8858L3.88937 19.8869C3.33093 19.1439 3 18.2202 3 17.2191C3 16.3238 3.26473 15.4903 3.72019 14.7927C3.26023 13.9256 3 12.9361 3 11.8858C3 9.22331 4.67228 6.95141 7.0238 6.06311L6.67464 5.45732C6.18372 4.60703 6.47506 3.51976 7.32536 3.02884L9.63476 1.6955C10.4851 1.20459 11.5724 1.49592 12.0633 2.34621Z"
        fill="black" />
</svg>
    