<svg width="64" height="64" viewBox="0 0 64 64" fill="none" xmlns="http://www.w3.org/2000/svg">
    <g clip-path="url(#clip0_1112_14858)">
        <path
            d="M0 6.67826C0 2.98996 2.98996 0 6.67826 0H57.3217C61.01 0 64 2.98996 64 6.67826V57.3217C64 61.01 61.01 64 57.3217 64H6.67826C2.98996 64 0 61.01 0 57.3217V6.67826Z"
            fill="#FFE0CC" />
        <circle opacity="0.24" cx="7.66458" cy="56.4364" r="14.9333"
            transform="rotate(105 7.66458 56.4364)" fill="#FAFBFF" />
        <path opacity="0.51"
            d="M12.9752 46.5438L13.134 46.606C12.8503 47.3368 13.2142 48.1561 13.945 48.4397L13.8828 48.5985C13.152 48.3149 12.3327 48.6788 12.049 49.4096L11.8902 49.3473C12.1739 48.6165 11.81 47.7972 11.0792 47.5136L11.1414 47.3548C11.8722 47.6384 12.6915 47.2746 12.9752 46.5438Z"
            fill="white" />
        <circle opacity="0.24" cx="58.3678" cy="3.21257" r="11.2"
            transform="rotate(105 58.3678 3.21257)" fill="#FAFBFF" />
        <path fill-rule="evenodd" clip-rule="evenodd"
            d="M51.2896 58.1842C51.8135 57.8817 52.7821 57.0017 52.9418 56.4043C53.1019 55.8068 52.7034 54.5608 52.4009 54.0369C52.7034 54.5608 53.5831 55.5289 54.1807 55.6891C54.7778 55.8494 56.0242 55.4506 56.5482 55.1481C56.0242 55.4506 55.0557 56.3306 54.8957 56.9275C54.7356 57.5251 55.1344 58.7715 55.4369 59.2955C55.1344 58.7715 54.2544 57.8029 53.6568 57.6428C53.0599 57.4829 51.8135 57.8817 51.2896 58.1842Z"
            fill="white" />
        <path fill-rule="evenodd" clip-rule="evenodd"
            d="M50.4518 28.1907L49.1897 26.5973L47.597 28.0534L48.6756 28.9701L50.4518 28.1907Z"
            fill="white" stroke="white" stroke-width="0.218962" stroke-miterlimit="1.5"
            stroke-linecap="round" stroke-linejoin="round" />
        <path opacity="0.8"
            d="M23.2896 5.30142C23.1773 5.72055 23.426 6.15135 23.8452 6.26366C24.2643 6.37596 24.6951 6.12723 24.8074 5.70811C24.9197 5.28898 24.671 4.85818 24.2519 4.74588C23.8327 4.63357 23.4019 4.8823 23.2896 5.30142Z"
            fill="white" />
        <path
            d="M38.7019 6.80294C38.5615 6.76532 38.4782 6.62101 38.5158 6.48062C38.5534 6.34022 38.6977 6.25691 38.8381 6.29453C38.9785 6.33214 39.0619 6.47645 39.0242 6.61685C38.9866 6.75725 38.8423 6.84056 38.7019 6.80294Z"
            fill="white" stroke="white" stroke-width="0.0644782" />
        <path opacity="0.8" fill-rule="evenodd" clip-rule="evenodd"
            d="M15.8871 52.874C15.6656 52.9888 15.2521 53.3321 15.1741 53.5754C15.096 53.8187 15.2382 54.3385 15.353 54.5599C15.2382 54.3385 14.8933 53.9238 14.6515 53.8463C14.4077 53.7698 13.8889 53.9099 13.6673 54.0248C13.8889 53.9099 14.3024 53.5667 14.3804 53.3233C14.4564 53.0811 14.3163 52.5602 14.2016 52.3391C14.3163 52.5602 14.6591 52.976 14.903 53.0524C15.1468 53.1289 15.6656 52.9888 15.8871 52.874Z"
            fill="white" />
        <path
            d="M55.3284 31.5056C55.4173 31.4893 55.5124 31.4929 55.6022 31.5053C55.559 31.4256 55.522 31.338 55.5058 31.2492C55.4896 31.1603 55.4933 31.0652 55.5056 30.9753C55.4259 31.0186 55.3382 31.0556 55.2493 31.0718C55.1605 31.088 55.0655 31.0843 54.9757 31.072C55.0189 31.1517 55.0559 31.2393 55.072 31.3282M55.3284 31.5056C55.3284 31.5055 55.3285 31.5055 55.3285 31.5055L55.3703 31.7347L55.3284 31.5056ZM55.3284 31.5056C55.2395 31.5218 55.1519 31.5588 55.0722 31.602M55.0722 31.602C55.0845 31.5122 55.0882 31.4171 55.072 31.3282M55.0722 31.602C55.0559 31.6108 55.0399 31.6199 55.0244 31.6292C54.9455 31.6759 54.8669 31.7322 54.7925 31.7918L54.9933 31.9307C55.0228 31.8401 55.0477 31.7466 55.0636 31.6563C55.0668 31.6385 55.0697 31.6204 55.0722 31.602ZM55.072 31.3282C55.072 31.3282 55.072 31.3282 55.072 31.3281L54.8428 31.3699L55.072 31.3282ZM54.6469 30.993C54.4996 30.7967 54.3029 30.6065 54.1696 30.5143C54.3029 30.6065 54.5503 30.7235 54.7859 30.7922L54.6469 30.993Z"
            fill="white" stroke="white" stroke-width="0.465876" />
        <path fill-rule="evenodd" clip-rule="evenodd"
            d="M18.4084 -3.18114C18.4084 2.58325 18.4084 8.35014 18.4084 14.1145C12.2723 13.2825 6.13616 12.4479 0 11.6159C0 5.61162 0 -0.392645 0 -6.39941C6.13616 -5.32749 12.2723 -4.25307 18.4084 -3.18114Z"
            stroke="#FFFDFA" stroke-width="0.895689" stroke-miterlimit="3" />
        <path fill-rule="evenodd" clip-rule="evenodd"
            d="M47.0045 48.5499C46.7603 49.4222 46.7666 52.1014 47.3853 53.1973C48.0004 54.2952 50.2864 55.6923 51.1587 55.9366C50.2864 55.6923 47.6074 55.6987 46.5124 56.3146C45.4138 56.9325 44.017 59.2186 43.7728 60.0909C44.017 59.2186 44.0105 56.5394 43.3926 55.4407C42.7767 54.3455 40.4907 52.9484 39.6185 52.7041C40.4907 52.9484 43.1697 52.9421 44.2655 52.3234C45.3633 51.7083 46.7603 49.4222 47.0045 48.5499Z"
            fill="#FFFDFA" />
        <path fill-rule="evenodd" clip-rule="evenodd"
            d="M48.2257 3.15944L52.8788 -9.06672L60.7999 -0.450749L48.2257 3.15944Z" fill="#FFFDFA" />
        <path fill-rule="evenodd" clip-rule="evenodd"
            d="M2.26348 16.3738L13.5072 9.60095L19.394 22.892L6.86206 26.7564L2.26348 16.3738Z"
            fill="#FFFDFA" />
        <path fill-rule="evenodd" clip-rule="evenodd"
            d="M21.7454 58.2081L30.2606 55.8057L31.4675 46.4083L25.876 41.7134L18.5587 46.5277L17.6348 52.4815L21.7454 58.2081Z"
            fill="#FFAF4D" />
        <path d="M29.1109 55.1983L23.7295 50.9038L18.6614 52.2325" stroke="#FFF9EB"
            stroke-width="0.895689" stroke-miterlimit="3" stroke-linecap="round"
            stroke-linejoin="round" />
        <path d="M25.837 42.5854L23.7295 50.9043" stroke="#FFF9EB" stroke-width="0.895689"
            stroke-miterlimit="3" stroke-linejoin="round" />
        <path fill-rule="evenodd" clip-rule="evenodd"
            d="M17.3149 41.8037L19.6911 36.8641L15.8229 32.4505L11.3504 33.1222L10.5852 38.4944L12.9706 41.3647L17.3149 41.8037Z"
            fill="#FFAF4D" />
        <path d="M18.7648 37.1319L14.7407 37.9161L13.8077 40.6735" stroke="#FFF9EB"
            stroke-width="0.895689" stroke-miterlimit="3" stroke-linecap="round"
            stroke-linejoin="round" />
        <path d="M11.7429 33.5263L14.7412 37.916" stroke="#FFF9EB" stroke-width="0.895689"
            stroke-miterlimit="3" stroke-linejoin="round" />
        <path d="M43.5982 7.4668L24.5332 9.05523V34.7821L43.5982 36.1814V7.4668Z" fill="#FFFDFA" />
        <path d="M51.7144 17.916H32.6494V25.5119H51.7144V17.916Z" fill="#FFAF4D" />
        <path d="M47.1831 28.4258H28.1182V31.9009H47.1831V28.4258Z" fill="#FFAF4D" />
        <path d="M52.7447 37.9043H33.6797V41.3795H52.7447V37.9043Z" fill="#FFAF4D" />
        <g style="mix-blend-mode:hue">
            <rect width="64" height="64" fill="#FFE6C7" />
        </g>
    </g>
    <defs>
        <clipPath id="clip0_1112_14858">
            <path
                d="M0 6.67826C0 2.98996 2.98996 0 6.67826 0H57.3217C61.01 0 64 2.98996 64 6.67826V57.3217C64 61.01 61.01 64 57.3217 64H6.67826C2.98996 64 0 61.01 0 57.3217V6.67826Z"
                fill="white" />
        </clipPath>
    </defs>
</svg>