<svg width="20" height="21" viewBox="0 0 20 21" fill="none" xmlns="http://www.w3.org/2000/svg">
<path d="M6.66675 7.16667V4.83334C6.66675 3.89992 6.66675 3.43321 6.8484 3.07669C7.00819 2.76308 7.26316 2.50812 7.57676 2.34833C7.93328 2.16667 8.39999 2.16667 9.33341 2.16667H15.6667C16.6002 2.16667 17.0669 2.16667 17.4234 2.34833C17.737 2.50812 17.992 2.76308 18.1518 3.07669C18.3334 3.43321 18.3334 3.89992 18.3334 4.83334V11.1667C18.3334 12.1001 18.3334 12.5668 18.1518 12.9233C17.992 13.2369 17.737 13.4919 17.4234 13.6517C17.0669 13.8333 16.6002 13.8333 15.6667 13.8333H13.3334M4.33341 18.8333H10.6667C11.6002 18.8333 12.0669 18.8333 12.4234 18.6517C12.737 18.4919 12.992 18.2369 13.1518 17.9233C13.3334 17.5668 13.3334 17.1001 13.3334 16.1667V9.83334C13.3334 8.89992 13.3334 8.43321 13.1518 8.07669C12.992 7.76308 12.737 7.50812 12.4234 7.34833C12.0669 7.16667 11.6002 7.16667 10.6667 7.16667H4.33341C3.39999 7.16667 2.93328 7.16667 2.57676 7.34833C2.26316 7.50812 2.00819 7.76308 1.8484 8.07669C1.66675 8.43321 1.66675 8.89992 1.66675 9.83334V16.1667C1.66675 17.1001 1.66675 17.5668 1.8484 17.9233C2.00819 18.2369 2.26316 18.4919 2.57676 18.6517C2.93328 18.8333 3.39999 18.8333 4.33341 18.8333Z" stroke="#636779" stroke-width="1.5" stroke-linecap="round" stroke-linejoin="round"/>
</svg>