<svg width="25" height="24" viewBox="0 0 25 24" fill="none" xmlns="http://www.w3.org/2000/svg">
    <path d="M6.68652 3.73242H18.3132V20.2658H16.6065V12.6924H16.5898C16.4011 10.5993 14.642 8.95907 12.4999 8.95907C10.3577 8.95907 8.59856 10.5993 8.40992 12.6924H8.39319V20.2658H6.68652V3.73242Z" fill="#855DCD"/>
    <path d="M3.59375 6.08008L4.28709 8.42675H4.87374V17.9201C4.57919 17.9201 4.34041 18.1589 4.34041 18.4534V19.0934H4.23376C3.93921 19.0934 3.70041 19.3322 3.70041 19.6268V20.2668H9.67374V19.6268C9.67374 19.3322 9.43497 19.0934 9.14041 19.0934H9.03376V18.4534C9.03376 18.1589 8.79496 17.9201 8.50041 17.9201H7.86042V6.08008H3.59375Z" fill="#855DCD"/>
    <path d="M16.7134 17.9201C16.4188 17.9201 16.18 18.1589 16.18 18.4534V19.0934H16.0734C15.7788 19.0934 15.54 19.3322 15.54 19.6268V20.2668H21.5134V19.6268C21.5134 19.3322 21.2746 19.0934 20.98 19.0934H20.8734V18.4534C20.8734 18.1589 20.6346 17.9201 20.34 17.9201V8.42675H20.9267L21.62 6.08008H17.3534V17.9201H16.7134Z" fill="#855DCD"/>
</svg>