<svg width="21" height="20" viewBox="0 0 21 20" fill="none" xmlns="http://www.w3.org/2000/svg">
<path d="M5.65527 3.11133H15.3442V16.8891H13.9219V10.578H13.908C13.7508 8.83375 12.2849 7.46687 10.4997 7.46687C8.71455 7.46687 7.24863 8.83375 7.09143 10.578H7.07749V16.8891H5.65527V3.11133Z" fill="#855DCD"/>
<path d="M3.07812 5.06689L3.6559 7.02245H4.14478V14.9336C3.89932 14.9336 3.70034 15.1326 3.70034 15.378V15.9114H3.61146C3.366 15.9114 3.167 16.1103 3.167 16.3558V16.8891H8.14478V16.3558C8.14478 16.1103 7.94581 15.9114 7.70035 15.9114H7.61146V15.378C7.61146 15.1326 7.41247 14.9336 7.16701 14.9336H6.63368V5.06689H3.07812Z" fill="#855DCD"/>
<path d="M14.011 14.9336C13.7655 14.9336 13.5665 15.1326 13.5665 15.378V15.9114H13.4776C13.2322 15.9114 13.0332 16.1103 13.0332 16.3558V16.8891H18.011V16.3558C18.011 16.1103 17.812 15.9114 17.5665 15.9114H17.4776V15.378C17.4776 15.1326 17.2787 14.9336 17.0332 14.9336V7.02245H17.5221L18.0999 5.06689H14.5443V14.9336H14.011Z" fill="#855DCD"/>
</svg>
