<svg width="606" height="460" viewBox="0 0 606 460" fill="none" xmlns="http://www.w3.org/2000/svg">
<g clip-path="url(#clip0_1763_121018)">
<path d="M965.873 -28.1281C942.595 -10.2708 915.754 -1.57605 887.304 3.10151C858.853 7.77907 829.674 9.62258 810.262 33.5607C805.832 39.0224 802.296 45.3509 796.821 49.7671C778.853 64.2537 744.748 55.3526 735.572 76.5255C732.972 82.5237 733.508 89.4163 734.815 95.8273C739.287 117.729 751.379 142.727 737.498 160.24C726.492 174.121 701.784 178.042 700.229 195.693C698.839 211.459 717.976 220.484 725.199 234.572C733.371 250.517 723.878 271.153 708.649 280.591C693.956 289.685 661.873 283.04 652.504 296.44C650.853 298.806 650 301.612 648.666 304.158C642.392 316.154 627.08 320.171 613.543 320.171C600.005 320.171 586.11 317.489 573.109 321.286C561.209 324.766 551.001 333.461 538.688 335.016C505.642 339.157 454.396 294.293 422.258 319.442C402.722 334.727 461.962 356.436 468.924 374.252C478.636 399.14 461.646 423.958 438.162 432.667C418.915 439.807 397.632 437.977 377.243 435.666C321.525 429.365 265.133 420.244 209.704 428.815C196.827 430.809 181.776 435.886 178.681 448.543C177.374 453.895 178.598 459.604 177.443 464.997C174.361 479.401 156.339 485.028 141.673 483.597C127.008 482.166 112.356 476.512 97.9241 479.497C89.0368 481.327 80.9611 486.362 71.9499 487.394C58.894 488.894 46.5673 481.891 35.0798 475.521C-15.6443 447.442 -88.8619 404.987 -144.594 433.355C-159.851 441.128 -174.571 449.905 -190.448 456.426C-210.547 464.68 -230.881 467.927 -252.549 466.29C-263.885 465.437 -283.462 458.476 -286.434 445.613C-289.598 431.869 -268.466 431.552 -260.446 432.158C-253.443 432.68 -266.953 432.13 -260.019 432.075C-258.052 432.061 -256.085 431.896 -254.131 431.717C-260.804 432.281 -254.351 431.607 -253.099 431.387C-251.173 431.03 -249.275 430.562 -247.376 430.094C-245.478 429.626 -243.593 429.035 -241.708 428.457C-246.537 429.956 -240.332 427.907 -239.755 427.686C-235.366 426.022 -231.087 424.054 -226.836 422.046C-211.276 414.672 -196.528 405.702 -180.9 398.452C-162.822 390.06 -143.92 384.997 -123.985 383.951C-103.239 382.864 -82.2996 386.675 -62.2273 391.49C-45.3606 395.549 -28.8653 401.066 -12.1636 405.716C-8.21527 406.816 -4.25305 407.821 -0.277161 408.797C1.69019 409.279 3.65753 409.705 5.63861 410.146C12.6549 411.686 -1.63916 408.839 5.3772 410.104C9.24304 410.806 13.1365 411.315 17.0436 411.728C18.9697 411.934 20.9094 412.058 22.8355 412.182C14.1545 411.645 23.0419 411.989 24.8579 411.948C26.6739 411.907 28.6549 411.755 30.5535 411.604C23.7297 412.14 30.0582 411.631 31.3928 411.411C35.1898 410.792 38.9044 409.788 42.5638 408.646C37.6661 410.173 43.7882 407.999 44.3936 407.738C46.4296 406.885 48.3832 405.867 50.3368 404.849C55.1107 402.373 59.5956 399.332 64.0393 396.306C71.6885 391.119 79.1588 385.74 87.3858 381.447C97.6627 376.096 109.357 373.042 120.789 371.528C145.044 368.309 169.615 370.111 193.952 371.611C216.143 372.973 238.292 375.215 260.332 378.146C284.229 381.31 307.947 385.588 331.568 390.376C333.673 390.803 335.778 391.229 337.897 391.655C345.353 393.155 330.839 390.321 338.365 391.738C342.698 392.55 347.046 393.279 351.393 393.953C355.74 394.627 360.101 395.109 364.476 395.521C365.852 395.645 373.281 396.003 365.577 395.7C368.425 395.81 371.286 395.769 374.134 395.7C376.239 395.645 378.344 395.466 380.449 395.301C374.12 395.838 380.903 395.136 381.976 394.944C383.998 394.586 385.993 394.077 387.974 393.554C394.371 391.889 384.053 395.219 390.203 392.825C398.774 389.496 403.575 386.235 408.941 378.765C407.936 380.154 410.11 375.243 410.055 375.408C410.179 374.981 410.385 369.63 410.564 372.959C410.482 371.418 410.028 369.919 409.587 368.46C410.798 372.464 409.505 368.639 408.789 367.566C405.873 363.164 412.297 370.95 408.349 367.208C404.098 363.177 413.343 370.496 408.335 367.14C406.808 366.108 401.236 363.287 408.817 367.112C406.629 366.011 404.346 365.09 402.062 364.195C395.747 361.719 409.326 366.507 402.901 364.539C401.195 364.017 399.462 363.576 397.728 363.136C394.275 362.256 390.863 361.416 387.465 360.316C376.101 356.615 364.917 352.13 354.984 345.348C340.057 335.14 324.222 316.925 334.43 297.967C344.363 279.532 367.393 270.796 386.681 266.159C408.005 261.028 430.457 261.729 452.139 263.339C470.299 264.687 488.267 267.755 506.413 269.117C507.967 269.227 514.956 269.585 506.881 269.213C508.889 269.31 510.911 269.351 512.92 269.379C516.937 269.461 520.968 269.379 524.985 269.213C526.98 269.131 528.975 268.993 530.97 268.842C532.126 268.759 538.853 267.989 532.167 268.828C536.693 268.264 541.164 267.397 545.608 266.366C547.479 265.925 549.323 265.403 551.18 264.866C557.261 263.119 546.97 266.503 552.858 264.302C556.38 262.981 559.764 261.344 563.08 259.583C569.752 256.02 573.316 253.007 579.479 245.867C580.58 244.601 581.556 243.225 582.533 241.863C582.63 241.726 585.45 237.117 583.813 240.048C585.409 237.172 586.674 234.104 587.857 231.036C590.444 224.268 591.985 217.114 593.333 210.001C595.892 196.367 597.213 182.513 601.326 169.21C606.072 153.884 615.125 142.286 628.277 133.372C641.25 124.594 660.69 120.384 671.09 111.635C677.295 106.407 680.432 101.248 682.124 93.5573C683.486 87.3526 680.487 84.0783 675.63 78.1213C669.907 71.105 665.821 63.3595 666.372 54.1007C666.922 44.8419 673.237 37.1101 680.294 31.7997C695.345 20.4773 713.89 15.9786 731.527 10.2141C729.244 11.0121 729.326 10.9846 731.789 10.1041C733.687 9.42997 735.558 8.68708 737.443 7.93041C741.13 6.4446 744.693 4.66986 748.146 2.73005C751.847 0.638905 751.379 0.900307 755.19 -2.63538C758.286 -5.52446 760.845 -8.99135 763.431 -12.3207C776.886 -29.6414 795.706 -36.0937 817.333 -35.7223C827.913 -35.5296 838.313 -34.2089 848.797 -33.0533C850.97 -32.8194 853.158 -32.6406 855.345 -32.4892C848.026 -33.012 855.634 -32.6405 856.9 -32.6543C859.183 -32.6818 861.453 -32.8332 863.737 -32.9982C871.235 -33.521 858.661 -32.1728 866.104 -33.2734C882.475 -35.7085 896.948 -41.4591 910.458 -51.8186C921.698 -60.4445 937.835 -58.037 950.135 -52.7816C956.119 -50.2227 962.406 -46.4394 966.093 -40.8813C968.336 -37.497 969.904 -31.2098 965.914 -28.1418L965.873 -28.1281Z" fill="url(#paint0_linear_1763_121018)"/>
<path d="M154.307 252.18L158.033 257.981L164.701 259.732L160.336 265.068L160.731 271.952L154.307 269.449L147.882 271.952L148.278 265.068L143.912 259.732L150.581 257.981L154.307 252.18Z" fill="white"/>
<path d="M117.028 285.805L119.008 288.887L122.552 289.818L120.232 292.653L120.442 296.311L117.028 294.981L113.614 296.311L113.824 292.653L111.504 289.818L115.048 288.887L117.028 285.805Z" fill="white"/>
</g>
<defs>
<linearGradient id="paint0_linear_1763_121018" x1="505.775" y1="351.281" x2="211.677" y2="332.375" gradientUnits="userSpaceOnUse">
<stop stop-color="white"/>
<stop offset="1" stop-color="white" stop-opacity="0"/>
</linearGradient>
<clipPath id="clip0_1763_121018">
<rect width="725" height="560" fill="white" transform="translate(0 -100)"/>
</clipPath>
</defs>
</svg>
