<svg width="789" height="812" viewBox="0 0 789 812" fill="none" xmlns="http://www.w3.org/2000/svg">
<g clip-path="url(#clip0_1771_58962)">
<path d="M786.504 -41.6086C763.226 -23.7513 736.385 -15.0565 707.935 -10.379C679.484 -5.7014 650.304 -3.85789 630.893 20.0802C626.463 25.542 622.927 31.8704 617.451 36.2866C599.484 50.7733 565.379 41.8721 556.203 63.045C553.603 69.0433 554.139 75.9358 555.446 82.3468C559.917 104.249 572.01 129.246 558.129 146.76C547.123 160.641 522.414 164.562 520.86 182.213C519.47 197.979 538.607 207.004 545.83 221.092C554.002 237.036 544.509 257.673 529.279 267.111C514.586 276.204 482.504 269.559 473.135 282.959C471.484 285.325 470.631 288.132 469.297 290.677C463.023 302.674 447.711 306.691 434.174 306.691C420.636 306.691 406.741 304.008 393.74 307.805C381.84 311.286 371.632 319.981 359.319 321.535C326.273 325.676 275.026 280.813 242.889 305.962C223.353 321.246 282.593 342.956 289.554 360.772C299.267 385.659 282.277 410.478 258.793 419.186C239.546 426.326 218.263 424.497 197.874 422.185C142.156 415.884 85.764 406.763 30.335 415.334C17.4579 417.329 2.40717 422.406 -0.688232 435.062C-1.99524 440.414 -0.770813 446.123 -1.92645 451.516C-5.00818 465.921 -23.0305 471.547 -37.696 470.117C-52.3616 468.686 -67.0134 463.031 -81.445 466.017C-90.3323 467.847 -98.408 472.882 -107.419 473.914C-120.475 475.413 -132.802 468.411 -144.289 462.041C-195.013 433.962 -268.231 391.506 -323.963 419.874C-339.22 427.647 -353.94 436.424 -369.817 442.945C-389.916 451.2 -410.25 454.447 -431.918 452.81C-443.254 451.957 -462.831 444.995 -465.803 432.132C-468.967 418.388 -447.836 418.072 -439.815 418.677C-432.812 419.2 -446.322 418.65 -439.388 418.595C-437.421 418.581 -435.454 418.416 -433.5 418.237C-440.173 418.801 -433.72 418.127 -432.469 417.907C-430.542 417.549 -428.644 417.081 -426.745 416.614C-424.847 416.146 -422.962 415.554 -421.077 414.976C-425.906 416.476 -419.701 414.426 -419.124 414.206C-414.735 412.541 -410.456 410.574 -406.205 408.565C-390.646 401.191 -375.897 392.221 -360.269 384.971C-342.192 376.579 -323.289 371.516 -303.354 370.471C-282.608 369.384 -261.669 373.195 -241.596 378.01C-224.73 382.068 -208.234 387.585 -191.533 392.235C-187.584 393.336 -183.622 394.34 -179.646 395.317C-177.679 395.798 -175.712 396.225 -173.731 396.665C-166.714 398.206 -181.008 395.358 -173.992 396.624C-170.126 397.326 -166.233 397.835 -162.326 398.247C-160.399 398.454 -158.46 398.577 -156.534 398.701C-165.215 398.165 -156.327 398.509 -154.511 398.467C-152.695 398.426 -150.714 398.275 -148.816 398.123C-155.639 398.66 -149.311 398.151 -147.976 397.931C-144.179 397.312 -140.465 396.307 -136.805 395.166C-141.703 396.693 -135.581 394.519 -134.976 394.258C-132.94 393.405 -130.986 392.387 -129.032 391.368C-124.258 388.892 -119.773 385.852 -115.33 382.825C-107.681 377.638 -100.21 372.259 -91.9833 367.967C-81.7064 362.615 -70.0125 359.561 -58.58 358.048C-34.3254 354.828 -9.75452 356.631 14.5826 358.13C36.7734 359.492 58.9231 361.735 80.9626 364.665C104.859 367.829 128.577 372.108 152.199 376.896C154.304 377.322 156.409 377.749 158.528 378.175C165.984 379.675 151.47 376.841 158.995 378.258C163.329 379.069 167.676 379.798 172.024 380.473C176.371 381.147 180.732 381.628 185.107 382.041C186.483 382.165 193.912 382.522 186.208 382.22C189.056 382.33 191.917 382.289 194.765 382.22C196.87 382.165 198.975 381.986 201.08 381.821C194.751 382.357 201.534 381.656 202.607 381.463C204.629 381.105 206.624 380.596 208.605 380.074C215.002 378.409 204.684 381.738 210.834 379.344C219.405 376.015 224.206 372.755 229.572 365.284C228.567 366.674 230.741 361.762 230.686 361.927C230.81 361.501 231.016 356.149 231.195 359.479C231.112 357.938 230.658 356.438 230.218 354.98C231.429 358.983 230.136 355.159 229.42 354.086C226.504 349.683 232.928 357.47 228.98 353.728C224.729 349.697 233.974 357.016 228.966 353.659C227.439 352.627 221.867 349.807 229.448 353.632C227.26 352.531 224.977 351.609 222.693 350.715C216.378 348.239 229.957 353.026 223.532 351.059C221.826 350.536 220.093 350.096 218.359 349.656C214.906 348.775 211.494 347.936 208.096 346.835C196.732 343.135 185.547 338.65 175.615 331.867C160.688 321.659 144.853 303.444 155.061 284.486C164.994 266.051 188.024 257.315 207.312 252.679C228.636 247.547 251.088 248.249 272.77 249.859C290.93 251.207 308.897 254.275 327.044 255.637C328.598 255.747 335.587 256.104 327.511 255.733C329.52 255.829 331.542 255.871 333.551 255.898C337.568 255.981 341.599 255.898 345.616 255.733C347.611 255.65 349.606 255.513 351.601 255.362C352.756 255.279 359.484 254.509 352.798 255.348C357.324 254.784 361.795 253.917 366.239 252.885C368.11 252.445 369.953 251.922 371.811 251.386C377.892 249.638 367.601 253.023 373.489 250.822C377.011 249.501 380.395 247.864 383.711 246.103C390.383 242.54 393.947 239.527 400.11 232.386C401.211 231.121 402.187 229.745 403.164 228.383C403.26 228.245 406.081 223.637 404.444 226.567C406.039 223.692 407.305 220.624 408.488 217.556C411.075 210.787 412.616 203.633 413.964 196.521C416.523 182.887 417.843 169.033 421.957 155.729C426.703 140.404 435.756 128.806 448.908 119.891C461.881 111.114 481.321 106.904 491.721 98.1542C497.926 92.9264 501.063 87.7673 502.755 80.0768C504.117 73.8722 501.118 70.5979 496.261 64.6409C490.538 57.6245 486.452 49.879 487.003 40.6202C487.553 31.3614 493.868 23.6297 500.925 18.3193C515.976 6.9968 534.521 2.49809 552.158 -3.26632C549.874 -2.46838 549.957 -2.4959 552.42 -3.37638C554.318 -4.0505 556.189 -4.79339 558.074 -5.55006C561.761 -7.03587 565.324 -8.81061 568.777 -10.7504C572.478 -12.8416 572.01 -12.5802 575.821 -16.1158C578.917 -19.0049 581.475 -22.4718 584.062 -25.8011C597.517 -43.1219 616.337 -49.5742 637.964 -49.2027C648.543 -49.0101 658.944 -47.6894 669.427 -46.5338C671.601 -46.2999 673.789 -46.121 675.976 -45.9697C668.657 -46.4925 676.265 -46.121 677.531 -46.1348C679.814 -46.1623 682.084 -46.3136 684.368 -46.4787C691.866 -47.0015 679.292 -45.6533 686.734 -46.7539C703.106 -49.189 717.579 -54.9396 731.089 -65.299C742.329 -73.925 758.466 -71.5174 770.765 -66.2621C776.75 -63.7032 783.037 -59.9198 786.724 -54.3618C788.967 -50.9774 790.535 -44.6902 786.545 -41.6223L786.504 -41.6086Z" fill="url(#paint0_linear_1771_58962)"/>
<g opacity="0.25" filter="url(#filter0_f_1771_58962)">
<rect x="293.593" y="322.117" width="392.531" height="372.743" rx="165.343" fill="#9E77ED"/>
</g>
</g>
<defs>
<filter id="filter0_f_1771_58962" x="143.593" y="172.117" width="692.53" height="672.742" filterUnits="userSpaceOnUse" color-interpolation-filters="sRGB">
<feFlood flood-opacity="0" result="BackgroundImageFix"/>
<feBlend mode="normal" in="SourceGraphic" in2="BackgroundImageFix" result="shape"/>
<feGaussianBlur stdDeviation="75" result="effect1_foregroundBlur_1771_58962"/>
</filter>
<linearGradient id="paint0_linear_1771_58962" x1="302.762" y1="389.167" x2="94.2634" y2="411.355" gradientUnits="userSpaceOnUse">
<stop stop-color="white"/>
<stop offset="1" stop-color="white" stop-opacity="0"/>
</linearGradient>
<clipPath id="clip0_1771_58962">
<rect width="1358" height="883" fill="white" transform="translate(-569 -71)"/>
</clipPath>
</defs>
</svg>
