<svg width="104" height="123" viewBox="0 0 104 123" fill="none" xmlns="http://www.w3.org/2000/svg">
<path d="M58.0957 72.668L70.9731 83.208" stroke="black" stroke-width="0.754144" stroke-miterlimit="10"/>
<path d="M13.4654 80.7237L16.6749 112.442L28.7728 104.782L39.4959 121.644L45.6623 104.711L76.5928 120.403L74.4735 94.639L91.2146 84.8221L81.1482 67.3644L101.075 43.5209L79.8496 44.4438L78.6605 20.0309L57.9221 32.3397L41.994 2.13391L34.0882 34.945L19.9799 19.2236L17.3233 44.8818L2.53836 46.8181L11.9396 67.5744L2.98729 78.8195L13.4654 80.7237Z" fill="url(#paint0_radial_1828_81956)"/>
<path d="M20.7164 95.0972L14.1272 81.4461L27.1748 74.2659C32.158 69.6344 20.9771 60.1604 19.623 62.4211L3.94583 83.1515L20.6892 97.4612C21.3064 97.0152 21.418 96.2907 20.7105 95.0974L20.7164 95.0972Z" fill="url(#paint1_radial_1828_81956)"/>
<path d="M54.3717 113.616L65.7934 103.781L64.5315 89.3727L31.7335 82.5654L21.8399 91.6342L23.1576 105.06L54.3717 113.616Z" fill="url(#paint2_linear_1828_81956)"/>
<path d="M66.5894 105.257C66.8503 105.107 67.1419 104.819 67.4745 104.341C68.2752 103.198 83.6229 88.3235 83.8133 86.9222C84.0038 85.521 68.8622 64.9362 65.3827 64.2374C63.5272 63.9067 63.1779 67.5545 61.3631 70.2454C59.5482 72.9354 58.1144 74.1099 55.9973 76.1858L71.9507 88.041L64.7502 102.377C64.7502 102.377 65.5062 105.902 66.5896 105.263" fill="url(#paint3_radial_1828_81956)"/>
<path fill-rule="evenodd" clip-rule="evenodd" d="M18.1406 92.3195C18.2934 92.2587 18.4451 92.1933 18.5955 92.1285C18.9555 91.9733 19.3081 91.8213 19.6514 91.7431C19.8906 91.6524 20.1044 91.6866 20.0822 91.7287C20.0806 91.7323 20.0789 91.7338 20.0776 91.7348C20.0747 91.7374 20.0742 91.7378 20.0832 91.7582C20.9285 93.1833 22.8309 93.3618 23.9936 91.9168L23.9531 91.7646C23.6287 91.6041 23.3484 91.5249 23.0808 91.4748C22.6516 91.3592 22.2464 91.2546 21.8453 91.2739L21.8223 91.2747C21.6771 91.2798 21.5361 91.2848 21.3757 91.1892C21.3159 91.1517 21.2537 91.1077 21.1886 91.0616C20.9714 90.908 20.7225 90.732 20.4259 90.701C20.2712 90.669 20.1331 90.6951 19.9894 90.7222C19.9508 90.7295 19.9118 90.7369 19.872 90.7432C19.8052 90.768 19.6675 90.8295 19.5671 90.8743L19.5671 90.8743C19.5359 90.8883 19.5084 90.9006 19.4877 90.9097C18.9031 91.2719 18.4521 91.7419 18.0418 92.1928L18.1463 92.3134L18.1406 92.3195ZM17.9294 92.9621L17.9267 92.9602L17.9269 92.9661L17.9294 92.9621ZM17.9294 92.9621L18.0167 92.8272C19.3947 93.2242 20.8074 93.5964 22.231 93.7673C23.7793 93.7805 24.839 93.8455 26.4103 94.1946L26.4625 94.3406C25.9199 94.9402 25.2148 95.2608 24.4704 95.3734C25.5846 95.4137 26.6534 95.4532 27.9322 95.5842L27.9902 95.73C24.8133 98.6012 19.9904 95.8913 17.3454 94.0007L17.4412 93.8616C19.1046 94.4913 20.8366 95.0477 22.6231 95.2952L22.769 95.3029C22.4391 95.2303 22.1202 95.1266 21.8232 94.998C20.3733 94.5388 19.1029 93.8023 17.9294 92.9621ZM25.4882 98.6205C22.1322 100.552 18.6799 96.7575 17.197 94.4616L17.3158 94.2444C17.4929 94.3879 17.6713 94.535 17.8514 94.6835C18.8751 95.5276 19.9533 96.4166 21.1663 96.9337C21.2567 96.9611 21.3457 96.988 21.4335 97.0145C22.8828 97.4524 24.0066 97.792 25.4829 98.4612L25.4882 98.6205Z" fill="url(#paint4_radial_1828_81956)"/>
<path fill-rule="evenodd" clip-rule="evenodd" d="M65.8614 102.33C66.0163 102.369 66.1728 102.409 66.3302 102.444L66.3238 102.433L66.408 102.3C65.9288 101.926 65.408 101.547 64.7789 101.285C64.744 101.277 64.6881 101.261 64.6276 101.245C64.5333 101.219 64.428 101.189 64.3737 101.18C64.3301 101.18 64.2871 101.179 64.2444 101.177C64.102 101.173 63.9634 101.168 63.8198 101.223C63.5372 101.3 63.3178 101.503 63.1272 101.68C63.0691 101.734 63.0136 101.786 62.9598 101.83C62.8103 101.953 62.6573 101.97 62.51 101.981C62.1154 102.018 61.7308 102.179 61.3231 102.352C61.0721 102.443 60.8042 102.558 60.5095 102.757L60.4911 102.911C61.8668 104.124 63.7127 103.672 64.3249 102.192C64.3324 102.171 64.332 102.171 64.3289 102.169C64.3275 102.168 64.3257 102.166 64.3239 102.163C64.2932 102.128 64.4977 102.062 64.7476 102.113C65.1021 102.139 65.477 102.234 65.8614 102.33ZM66.6377 103.025C65.6127 103.999 64.4668 104.888 63.1061 105.536C62.8374 105.699 62.5445 105.842 62.2366 105.957L62.3634 105.932C64.0897 105.437 65.7119 104.656 67.2551 103.813L67.3712 103.927L67.3714 103.933C67.3325 103.97 67.293 104.007 67.2529 104.045L67.3186 104.077L67.3127 104.077C66.2116 106.483 63.6744 110.875 60.0606 109.519C59.9981 109.479 60.0237 109.414 60.0553 109.361C60.7064 108.267 61.7092 107.909 62.659 107.57C63.2616 107.354 63.8429 107.147 64.2995 106.764C65.15 106.05 65.7333 105.488 66.3772 104.823C63.9472 106.878 60.255 109.113 57.1336 107.129L57.1641 106.981C58.3977 106.671 59.4405 106.477 60.5286 106.278C59.7839 106.274 59.0466 106.069 58.4226 105.581L58.4531 105.432C59.9466 104.868 60.9852 104.656 62.5132 104.416C63.8951 104.045 65.2293 103.486 66.5273 102.905L66.6377 103.025Z" fill="url(#paint5_radial_1828_81956)"/>
<path d="M63.9821 89.8328C63.7728 89.5799 63.3994 89.5451 63.1526 89.7602L52.4448 98.6849L23.126 91.8616C22.8105 91.7895 22.492 91.9833 22.4201 92.3047C22.3479 92.6202 22.5417 92.9387 22.8633 93.0165L52.3786 99.8864L53.7089 109.803C53.7317 109.955 53.8594 110.063 54.0128 110.058C54.0246 110.058 54.0305 110.058 54.0423 110.057C54.2011 110.034 54.3203 109.889 54.297 109.724L52.9666 99.8018L63.9157 90.674C64.1687 90.4647 64.1975 90.0915 63.9884 89.8445L63.9821 89.8328Z" fill="#FD2D2E"/>
<path d="M33.7777 52.6509C32.1781 55.4953 31.9506 56.6328 28.8318 56.2852C30.9823 57.2415 32.71 58.3926 32.986 60.2251C33.5845 59.1995 35.0501 58.5968 37.7221 58.5921C35.4606 57.8656 35.8482 57.1238 33.7779 52.6566L33.7777 52.6509ZM46.3903 60.3359C48.6927 60.2589 49.7052 59.79 50.7869 55.8161C51.4598 59.042 54.8301 60.658 57.716 60.2903C54.2844 60.7271 51.4043 62.1116 50.0935 64.1327C49.8064 62.6452 48.6107 61.352 46.3847 60.3361L46.3903 60.3359Z" fill="url(#paint6_radial_1828_81956)"/>
<path fill-rule="evenodd" clip-rule="evenodd" d="M52.9954 67.5973C53.3332 67.9209 53.3447 68.457 53.0212 68.7948C49.784 72.1741 44.7354 72.8579 40.2522 71.6875C39.7996 71.5693 39.5285 71.1066 39.6467 70.654C39.7648 70.2015 40.2275 69.9303 40.6801 70.0485C44.777 71.1181 49.1162 70.4226 51.7979 67.6231C52.1215 67.2853 52.6576 67.2738 52.9954 67.5973Z" fill="url(#paint7_linear_1828_81956)"/>
<defs>
<radialGradient id="paint0_radial_1828_81956" cx="0" cy="0" r="1" gradientUnits="userSpaceOnUse" gradientTransform="translate(47.7911 60.199) rotate(-147.045) scale(91.2227 83.8814)">
<stop offset="0.179636" stop-color="#FFF9FF"/>
<stop offset="0.273686" stop-color="#FFE2FE"/>
<stop offset="0.564578" stop-color="#FF89AC"/>
<stop offset="0.869362" stop-color="#FC2C2C"/>
</radialGradient>
<radialGradient id="paint1_radial_1828_81956" cx="0" cy="0" r="1" gradientUnits="userSpaceOnUse" gradientTransform="translate(28.2224 64.6237) rotate(138.455) scale(35.0655 32.685)">
<stop offset="0.0822582" stop-color="#FFF9FF" stop-opacity="0"/>
<stop offset="0.262081" stop-color="#FFE2FE" stop-opacity="0.4"/>
<stop offset="0.584229" stop-color="#FF89AC"/>
<stop offset="0.869362" stop-color="#FC2C2C"/>
</radialGradient>
<linearGradient id="paint2_linear_1828_81956" x1="43.297" y1="82.1785" x2="44.3602" y2="113.951" gradientUnits="userSpaceOnUse">
<stop stop-color="#E9BDB8"/>
<stop offset="1" stop-color="#FC2D99"/>
</linearGradient>
<radialGradient id="paint3_radial_1828_81956" cx="0" cy="0" r="1" gradientUnits="userSpaceOnUse" gradientTransform="translate(59.7869 67.1206) rotate(55.6674) scale(34.5737 35.0857)">
<stop offset="0.154701" stop-color="#FFF9FF"/>
<stop offset="0.321764" stop-color="#FFE2FE"/>
<stop offset="0.72" stop-color="#FF89AC"/>
<stop offset="1" stop-color="#FC2C2C"/>
</radialGradient>
<radialGradient id="paint4_radial_1828_81956" cx="0" cy="0" r="1" gradientUnits="userSpaceOnUse" gradientTransform="translate(18.0293 93.8941) rotate(16.5616) scale(12.394 13.3347)">
<stop stop-color="#FD2D2E"/>
<stop offset="1" stop-color="#C93131"/>
</radialGradient>
<radialGradient id="paint5_radial_1828_81956" cx="0" cy="0" r="1" gradientUnits="userSpaceOnUse" gradientTransform="translate(61.5676 107.348) rotate(-35.3152) scale(7.08475 7.44717)">
<stop stop-color="#C93131"/>
<stop offset="1" stop-color="#FD2D2E"/>
</radialGradient>
<radialGradient id="paint6_radial_1828_81956" cx="0" cy="0" r="1" gradientUnits="userSpaceOnUse" gradientTransform="translate(40.6888 65.2439) rotate(-159.705) scale(30.2267 10.5434)">
<stop offset="0.0994933" stop-color="#E20ABD"/>
<stop offset="0.575463" stop-color="#DF0A70"/>
</radialGradient>
<linearGradient id="paint7_linear_1828_81956" x1="36.9981" y1="67.8772" x2="49.3866" y2="73.5645" gradientUnits="userSpaceOnUse">
<stop offset="0.16" stop-color="#E20ABD"/>
<stop offset="0.909943" stop-color="#DF0A70"/>
</linearGradient>
</defs>
</svg>
