<svg width="26" height="24" viewBox="0 0 26 24" fill="none" xmlns="http://www.w3.org/2000/svg">
<g clip-path="url(#clip0_133_13830)">
<path d="M23.6646 7.33625C23.0573 5.91091 22.1985 4.63232 21.0884 3.5214C19.9783 2.41048 18.7216 1.55109 17.2973 0.94323C15.8102 0.314411 14.2394 0 12.6266 0C10.9929 0 9.42198 0.314411 7.9558 0.94323C6.53153 1.55109 5.25388 2.41048 4.14378 3.5214C3.03369 4.63232 2.17494 5.91091 1.56753 7.33625C0.939177 8.8035 0.625 10.3756 0.625 12.0105C0.625 13.6244 0.939177 15.1965 1.56753 16.6847C2.17494 18.11 3.03369 19.3886 4.14378 20.4996C5.25388 21.6105 6.53153 22.4698 7.9558 23.0568C9.4429 23.6856 11.0138 24 12.6266 24C14.2394 24 15.8102 23.6856 17.2973 23.0568C18.7216 22.4489 19.9992 21.5895 21.1094 20.4786C22.2194 19.3677 23.0782 18.0891 23.6856 16.6637C24.314 15.1756 24.6282 13.6035 24.6282 11.9895C24.6282 10.3756 24.293 8.8035 23.6646 7.33625ZM8.647 10.8786C9.12873 8.9502 10.8882 7.54583 12.9617 7.54583H21.2979C21.8424 8.57295 22.1775 9.70477 22.3032 10.8786H8.647ZM22.3032 13.1423C22.1775 14.3161 21.8215 15.4481 21.2979 16.4751H12.9617C10.8882 16.4751 9.14965 15.0498 8.647 13.1423H22.3032ZM5.73561 5.11441C7.57879 3.26987 10.0294 2.26376 12.6266 2.26376C15.2238 2.26376 17.6744 3.26987 19.5175 5.11441C19.5804 5.1773 19.6223 5.21921 19.6851 5.2821H12.9617C11.1604 5.2821 9.48483 5.9738 8.20712 7.2524C7.20177 8.25855 6.55247 9.51615 6.34302 10.8786H2.94991C3.20125 8.69872 4.16473 6.68646 5.73561 5.11441ZM12.6266 21.7572C10.0294 21.7572 7.57879 20.7511 5.73561 18.9065C4.16473 17.3345 3.20125 15.3013 2.94991 13.1423H6.34302C6.57342 14.5048 7.22272 15.7625 8.20712 16.7686C9.48483 18.0472 11.1604 18.7389 12.9617 18.7389H19.6851C19.6223 18.8018 19.5804 18.8437 19.5175 18.9065C17.6744 20.7511 15.2238 21.7572 12.6266 21.7572Z" fill="black"/>
</g>
<defs>
<clipPath id="clip0_133_13830">
<rect width="24.75" height="24" fill="white" transform="translate(0.625)"/>
</clipPath>
</defs>
</svg>